%TF.GenerationSoftware,KiCad,Pcbnew,8.0.6*%
%TF.CreationDate,2025-04-16T21:55:29+02:00*%
%TF.ProjectId,Autonomous_KiCAD8,4175746f-6e6f-46d6-9f75-735f4b694341,rev?*%
%TF.SameCoordinates,Original*%
%TF.FileFunction,Copper,L1,Top*%
%TF.FilePolarity,Positive*%
%FSLAX46Y46*%
G04 Gerber Fmt 4.6, Leading zero omitted, Abs format (unit mm)*
G04 Created by KiCad (PCBNEW 8.0.6) date 2025-04-16 21:55:29*
%MOMM*%
%LPD*%
G01*
G04 APERTURE LIST*
%TA.AperFunction,ComponentPad*%
%ADD10C,1.524000*%
%TD*%
%TA.AperFunction,ComponentPad*%
%ADD11R,1.524000X1.524000*%
%TD*%
%TA.AperFunction,ComponentPad*%
%ADD12R,1.700000X1.700000*%
%TD*%
%TA.AperFunction,ComponentPad*%
%ADD13O,1.700000X1.700000*%
%TD*%
%TA.AperFunction,ComponentPad*%
%ADD14R,1.200000X1.200000*%
%TD*%
%TA.AperFunction,ComponentPad*%
%ADD15C,1.200000*%
%TD*%
%TA.AperFunction,ComponentPad*%
%ADD16C,1.600000*%
%TD*%
%TA.AperFunction,ComponentPad*%
%ADD17O,1.600000X1.600000*%
%TD*%
%TA.AperFunction,ComponentPad*%
%ADD18R,1.800000X1.800000*%
%TD*%
%TA.AperFunction,ComponentPad*%
%ADD19C,1.800000*%
%TD*%
%TA.AperFunction,ComponentPad*%
%ADD20R,1.600000X1.600000*%
%TD*%
%TA.AperFunction,ViaPad*%
%ADD21C,0.600000*%
%TD*%
%TA.AperFunction,Conductor*%
%ADD22C,0.200000*%
%TD*%
%TA.AperFunction,Conductor*%
%ADD23C,0.400000*%
%TD*%
%ADD24C,0.300000*%
%ADD25C,0.350000*%
G04 APERTURE END LIST*
D10*
%TO.P,U1,8,VCC*%
%TO.N,VCC*%
X141800000Y-91020000D03*
%TO.P,U1,7,GND*%
%TO.N,GND*%
X141800000Y-88480000D03*
%TO.P,U1,6,SCL*%
%TO.N,/SCL*%
X141800000Y-85940000D03*
%TO.P,U1,5,SDA*%
%TO.N,/SDA*%
X141800000Y-83400000D03*
%TO.P,U1,4,XDA*%
%TO.N,unconnected-(U1-XDA-Pad4)*%
X141800000Y-80860000D03*
%TO.P,U1,3,XCL*%
%TO.N,unconnected-(U1-XCL-Pad3)*%
X141800000Y-78320000D03*
%TO.P,U1,2,AD0*%
%TO.N,unconnected-(U1-AD0-Pad2)*%
X141800000Y-75780000D03*
D11*
%TO.P,U1,1,INT*%
%TO.N,unconnected-(U1-INT-Pad1)*%
X141800000Y-73240000D03*
%TD*%
D12*
%TO.P,J4,1,Pin_1*%
%TO.N,VCC*%
X165170000Y-72800000D03*
D13*
%TO.P,J4,2,Pin_2*%
%TO.N,GND*%
X167710000Y-72800000D03*
%TO.P,J4,3,Pin_3*%
%TO.N,/D0*%
X170250000Y-72800000D03*
%TO.P,J4,4,Pin_4*%
%TO.N,/A0*%
X172790000Y-72800000D03*
%TD*%
D14*
%TO.P,C1,1*%
%TO.N,+5V*%
X191000000Y-94027400D03*
D15*
%TO.P,C1,2*%
%TO.N,GND*%
X191000000Y-96027400D03*
%TD*%
D16*
%TO.P,R2,1*%
%TO.N,VCC*%
X185060000Y-114800000D03*
D17*
%TO.P,R2,2*%
%TO.N,Net-(D2-A)*%
X187600000Y-114800000D03*
%TD*%
D16*
%TO.P,R1,1*%
%TO.N,+5V*%
X152800000Y-114800000D03*
D17*
%TO.P,R1,2*%
%TO.N,Net-(D1-A)*%
X150260000Y-114800000D03*
%TD*%
D12*
%TO.P,J3,1,Pin_1*%
%TO.N,+5V*%
X142200000Y-101520000D03*
D13*
%TO.P,J3,2,Pin_2*%
%TO.N,/ESC*%
X142200000Y-104060000D03*
%TO.P,J3,3,Pin_3*%
%TO.N,GND*%
X142200000Y-106600000D03*
%TD*%
D12*
%TO.P,J1,1,Pin_1*%
%TO.N,+5V*%
X196200000Y-92260000D03*
D13*
%TO.P,J1,2,Pin_2*%
%TO.N,/SERVO*%
X196200000Y-94800000D03*
%TO.P,J1,3,Pin_3*%
%TO.N,GND*%
X196200000Y-97340000D03*
%TD*%
D18*
%TO.P,D2,1,K*%
%TO.N,GND*%
X195800000Y-114800000D03*
D19*
%TO.P,D2,2,A*%
%TO.N,Net-(D2-A)*%
X193260000Y-114800000D03*
%TD*%
D18*
%TO.P,D1,1,K*%
%TO.N,GND*%
X142260000Y-114800000D03*
D19*
%TO.P,D1,2,A*%
%TO.N,Net-(D1-A)*%
X144800000Y-114800000D03*
%TD*%
D20*
%TO.P,A1,1,D1/TX*%
%TO.N,unconnected-(A1-D1{slash}TX-Pad1)*%
X161360000Y-80840000D03*
D17*
%TO.P,A1,2,D0/RX*%
%TO.N,unconnected-(A1-D0{slash}RX-Pad2)*%
X161360000Y-83380000D03*
%TO.P,A1,3,~{RESET}*%
%TO.N,unconnected-(A1-~{RESET}-Pad3)*%
X161360000Y-85920000D03*
%TO.P,A1,4,GND*%
%TO.N,GND*%
X161360000Y-88460000D03*
%TO.P,A1,5,D2*%
%TO.N,/D0*%
X161360000Y-91000000D03*
%TO.P,A1,6,D3*%
%TO.N,unconnected-(A1-D3-Pad6)*%
X161360000Y-93540000D03*
%TO.P,A1,7,D4*%
%TO.N,unconnected-(A1-D4-Pad7)*%
X161360000Y-96080000D03*
%TO.P,A1,8,D5*%
%TO.N,unconnected-(A1-D5-Pad8)*%
X161360000Y-98620000D03*
%TO.P,A1,9,D6*%
%TO.N,unconnected-(A1-D6-Pad9)*%
X161360000Y-101160000D03*
%TO.P,A1,10,D7*%
%TO.N,unconnected-(A1-D7-Pad10)*%
X161360000Y-103700000D03*
%TO.P,A1,11,D8*%
%TO.N,unconnected-(A1-D8-Pad11)*%
X161360000Y-106240000D03*
%TO.P,A1,12,D9*%
%TO.N,/SERVO*%
X161360000Y-108780000D03*
%TO.P,A1,13,D10*%
%TO.N,/ESC*%
X161360000Y-111320000D03*
%TO.P,A1,14,D11*%
%TO.N,unconnected-(A1-D11-Pad14)*%
X161360000Y-113860000D03*
%TO.P,A1,15,D12*%
%TO.N,unconnected-(A1-D12-Pad15)*%
X161360000Y-116400000D03*
%TO.P,A1,16,D13*%
%TO.N,unconnected-(A1-D13-Pad16)*%
X176600000Y-116400000D03*
%TO.P,A1,17,3V3*%
%TO.N,unconnected-(A1-3V3-Pad17)*%
X176600000Y-113860000D03*
%TO.P,A1,18,AREF*%
%TO.N,unconnected-(A1-AREF-Pad18)*%
X176600000Y-111320000D03*
%TO.P,A1,19,A0*%
%TO.N,unconnected-(A1-A0-Pad19)*%
X176600000Y-108780000D03*
%TO.P,A1,20,A1*%
%TO.N,unconnected-(A1-A1-Pad20)*%
X176600000Y-106240000D03*
%TO.P,A1,21,A2*%
%TO.N,unconnected-(A1-A2-Pad21)*%
X176600000Y-103700000D03*
%TO.P,A1,22,A3*%
%TO.N,unconnected-(A1-A3-Pad22)*%
X176600000Y-101160000D03*
%TO.P,A1,23,A4*%
%TO.N,/SDA*%
X176600000Y-98620000D03*
%TO.P,A1,24,A5*%
%TO.N,/SCL*%
X176600000Y-96080000D03*
%TO.P,A1,25,A6*%
%TO.N,unconnected-(A1-A6-Pad25)*%
X176600000Y-93540000D03*
%TO.P,A1,26,A7*%
%TO.N,unconnected-(A1-A7-Pad26)*%
X176600000Y-91000000D03*
%TO.P,A1,27,+5V*%
%TO.N,VCC*%
X176600000Y-88460000D03*
%TO.P,A1,28,~{RESET}*%
%TO.N,unconnected-(A1-~{RESET}-Pad28)*%
X176600000Y-85920000D03*
%TO.P,A1,29,GND*%
%TO.N,GND*%
X176600000Y-83380000D03*
%TO.P,A1,30,VIN*%
%TO.N,unconnected-(A1-VIN-Pad30)*%
X176600000Y-80840000D03*
%TD*%
D21*
%TO.N,/SCL*%
X158000000Y-84400000D03*
%TO.N,+5V*%
X152129300Y-99890000D03*
%TO.N,VCC*%
X164444300Y-87200000D03*
%TO.N,/SDA*%
X146200000Y-94600000D03*
%TD*%
D22*
%TO.N,/SDA*%
X161815635Y-94980000D02*
X161835635Y-95000000D01*
X147124500Y-94600000D02*
X147504500Y-94980000D01*
X146200000Y-94600000D02*
X147124500Y-94600000D01*
X147504500Y-94980000D02*
X161815635Y-94980000D01*
X172980000Y-95000000D02*
X176600000Y-98620000D01*
X161835635Y-95000000D02*
X172980000Y-95000000D01*
D23*
%TO.N,VCC*%
X153977057Y-85422943D02*
X148380000Y-91020000D01*
X160160000Y-85422943D02*
X153977057Y-85422943D01*
X160862943Y-84720000D02*
X160160000Y-85422943D01*
X148380000Y-91020000D02*
X141800000Y-91020000D01*
X161964300Y-84720000D02*
X160862943Y-84720000D01*
X164444300Y-87200000D02*
X161964300Y-84720000D01*
X174238300Y-87200000D02*
X175498300Y-88460000D01*
X164444300Y-87200000D02*
X174238300Y-87200000D01*
X175498300Y-88460000D02*
X176600000Y-88460000D01*
D22*
%TO.N,/SCL*%
X144200000Y-84400000D02*
X158000000Y-84400000D01*
X143340000Y-84400000D02*
X144200000Y-84400000D01*
X141800000Y-85940000D02*
X143340000Y-84400000D01*
D23*
%TO.N,Net-(D2-A)*%
X193260000Y-114800000D02*
X187600000Y-114800000D01*
D22*
%TO.N,Net-(D1-A)*%
X144800000Y-114800000D02*
X150260000Y-114800000D01*
D23*
%TO.N,+5V*%
X193280900Y-94027400D02*
X195048300Y-92260000D01*
X191373000Y-94027400D02*
X193280900Y-94027400D01*
X196200000Y-92260000D02*
X195048300Y-92260000D01*
X191000000Y-94027400D02*
X191373000Y-94027400D01*
X191000000Y-94027400D02*
X190098300Y-94027400D01*
X142200000Y-101520000D02*
X143351700Y-101520000D01*
X144981700Y-99890000D02*
X152129300Y-99890000D01*
X143351700Y-101520000D02*
X144981700Y-99890000D01*
X184235700Y-99890000D02*
X190098300Y-94027400D01*
X152129300Y-99890000D02*
X184235700Y-99890000D01*
D22*
%TO.N,/ESC*%
X152998300Y-104060000D02*
X142200000Y-104060000D01*
X160258300Y-111320000D02*
X152998300Y-104060000D01*
X161360000Y-111320000D02*
X160258300Y-111320000D01*
%TO.N,/SCL*%
X176600000Y-96080000D02*
X176080000Y-96600000D01*
%TO.N,/SERVO*%
X182170000Y-107678300D02*
X195048300Y-94800000D01*
X163563400Y-107678300D02*
X182170000Y-107678300D01*
X162461700Y-108780000D02*
X163563400Y-107678300D01*
X161360000Y-108780000D02*
X162461700Y-108780000D01*
X196200000Y-94800000D02*
X195048300Y-94800000D01*
%TD*%
%TA.AperFunction,Conductor*%
%TO.N,GND*%
G36*
X198442539Y-70520185D02*
G01*
X198488294Y-70572989D01*
X198499500Y-70624500D01*
X198499500Y-119375500D01*
X198479815Y-119442539D01*
X198427011Y-119488294D01*
X198375500Y-119499500D01*
X139624500Y-119499500D01*
X139557461Y-119479815D01*
X139511706Y-119427011D01*
X139500500Y-119375500D01*
X139500500Y-116399999D01*
X160254785Y-116399999D01*
X160254785Y-116400000D01*
X160273602Y-116603082D01*
X160329417Y-116799247D01*
X160329422Y-116799260D01*
X160420327Y-116981821D01*
X160543237Y-117144581D01*
X160693958Y-117281980D01*
X160693960Y-117281982D01*
X160793141Y-117343392D01*
X160867363Y-117389348D01*
X161057544Y-117463024D01*
X161258024Y-117500500D01*
X161258026Y-117500500D01*
X161461974Y-117500500D01*
X161461976Y-117500500D01*
X161662456Y-117463024D01*
X161852637Y-117389348D01*
X162026041Y-117281981D01*
X162176764Y-117144579D01*
X162299673Y-116981821D01*
X162390582Y-116799250D01*
X162446397Y-116603083D01*
X162465215Y-116400000D01*
X162465215Y-116399999D01*
X175494785Y-116399999D01*
X175494785Y-116400000D01*
X175513602Y-116603082D01*
X175569417Y-116799247D01*
X175569422Y-116799260D01*
X175660327Y-116981821D01*
X175783237Y-117144581D01*
X175933958Y-117281980D01*
X175933960Y-117281982D01*
X176033141Y-117343392D01*
X176107363Y-117389348D01*
X176297544Y-117463024D01*
X176498024Y-117500500D01*
X176498026Y-117500500D01*
X176701974Y-117500500D01*
X176701976Y-117500500D01*
X176902456Y-117463024D01*
X177092637Y-117389348D01*
X177266041Y-117281981D01*
X177416764Y-117144579D01*
X177539673Y-116981821D01*
X177630582Y-116799250D01*
X177686397Y-116603083D01*
X177705215Y-116400000D01*
X177686397Y-116196917D01*
X177630582Y-116000750D01*
X177630208Y-115999999D01*
X177566711Y-115872479D01*
X177539673Y-115818179D01*
X177436821Y-115681981D01*
X177416762Y-115655418D01*
X177266041Y-115518019D01*
X177266039Y-115518017D01*
X177092642Y-115410655D01*
X177092635Y-115410651D01*
X176985703Y-115369226D01*
X176902456Y-115336976D01*
X176701976Y-115299500D01*
X176498024Y-115299500D01*
X176297544Y-115336976D01*
X176297541Y-115336976D01*
X176297541Y-115336977D01*
X176107364Y-115410651D01*
X176107357Y-115410655D01*
X175933960Y-115518017D01*
X175933958Y-115518019D01*
X175783237Y-115655418D01*
X175660327Y-115818178D01*
X175569422Y-116000739D01*
X175569417Y-116000752D01*
X175513602Y-116196917D01*
X175494785Y-116399999D01*
X162465215Y-116399999D01*
X162446397Y-116196917D01*
X162390582Y-116000750D01*
X162390208Y-115999999D01*
X162326711Y-115872479D01*
X162299673Y-115818179D01*
X162196821Y-115681981D01*
X162176762Y-115655418D01*
X162026041Y-115518019D01*
X162026039Y-115518017D01*
X161852642Y-115410655D01*
X161852635Y-115410651D01*
X161745703Y-115369226D01*
X161662456Y-115336976D01*
X161461976Y-115299500D01*
X161258024Y-115299500D01*
X161057544Y-115336976D01*
X161057541Y-115336976D01*
X161057541Y-115336977D01*
X160867364Y-115410651D01*
X160867357Y-115410655D01*
X160693960Y-115518017D01*
X160693958Y-115518019D01*
X160543237Y-115655418D01*
X160420327Y-115818178D01*
X160329422Y-116000739D01*
X160329417Y-116000752D01*
X160273602Y-116196917D01*
X160254785Y-116399999D01*
X139500500Y-116399999D01*
X139500500Y-113855205D01*
X141060000Y-113855205D01*
X141060000Y-114650000D01*
X141834318Y-114650000D01*
X141810000Y-114740756D01*
X141810000Y-114859244D01*
X141834318Y-114950000D01*
X141060001Y-114950000D01*
X141060001Y-115744785D01*
X141060002Y-115744808D01*
X141062908Y-115769869D01*
X141062909Y-115769873D01*
X141108211Y-115872474D01*
X141108214Y-115872479D01*
X141187520Y-115951785D01*
X141187525Y-115951788D01*
X141290123Y-115997089D01*
X141315206Y-115999999D01*
X142109999Y-115999999D01*
X142110000Y-115999998D01*
X142110000Y-115225681D01*
X142200756Y-115250000D01*
X142319244Y-115250000D01*
X142410000Y-115225681D01*
X142410000Y-115999999D01*
X143204786Y-115999999D01*
X143204808Y-115999997D01*
X143229869Y-115997091D01*
X143229873Y-115997090D01*
X143332474Y-115951788D01*
X143332479Y-115951785D01*
X143411785Y-115872479D01*
X143411788Y-115872474D01*
X143457089Y-115769877D01*
X143457089Y-115769875D01*
X143459999Y-115744794D01*
X143459999Y-115329417D01*
X143479683Y-115262378D01*
X143532487Y-115216623D01*
X143601646Y-115206679D01*
X143665202Y-115235704D01*
X143694999Y-115274145D01*
X143774938Y-115434683D01*
X143774943Y-115434691D01*
X143909020Y-115612238D01*
X144073437Y-115762123D01*
X144073439Y-115762125D01*
X144262595Y-115879245D01*
X144262596Y-115879245D01*
X144262599Y-115879247D01*
X144470060Y-115959618D01*
X144688757Y-116000500D01*
X144688759Y-116000500D01*
X144911241Y-116000500D01*
X144911243Y-116000500D01*
X145129940Y-115959618D01*
X145337401Y-115879247D01*
X145526562Y-115762124D01*
X145690981Y-115612236D01*
X145825058Y-115434689D01*
X145837028Y-115410651D01*
X145907449Y-115269228D01*
X145954952Y-115217991D01*
X146018449Y-115200500D01*
X149153263Y-115200500D01*
X149220302Y-115220185D01*
X149264262Y-115269228D01*
X149320327Y-115381821D01*
X149360251Y-115434689D01*
X149443237Y-115544581D01*
X149593958Y-115681980D01*
X149593960Y-115681982D01*
X149693141Y-115743392D01*
X149767363Y-115789348D01*
X149957544Y-115863024D01*
X150158024Y-115900500D01*
X150158026Y-115900500D01*
X150361974Y-115900500D01*
X150361976Y-115900500D01*
X150562456Y-115863024D01*
X150752637Y-115789348D01*
X150926041Y-115681981D01*
X151076764Y-115544579D01*
X151199673Y-115381821D01*
X151290582Y-115199250D01*
X151346397Y-115003083D01*
X151365215Y-114800000D01*
X151365215Y-114799999D01*
X151694785Y-114799999D01*
X151694785Y-114800000D01*
X151713602Y-115003082D01*
X151769417Y-115199247D01*
X151769422Y-115199260D01*
X151860327Y-115381821D01*
X151983237Y-115544581D01*
X152133958Y-115681980D01*
X152133960Y-115681982D01*
X152233141Y-115743392D01*
X152307363Y-115789348D01*
X152497544Y-115863024D01*
X152698024Y-115900500D01*
X152698026Y-115900500D01*
X152901974Y-115900500D01*
X152901976Y-115900500D01*
X153102456Y-115863024D01*
X153292637Y-115789348D01*
X153466041Y-115681981D01*
X153616764Y-115544579D01*
X153739673Y-115381821D01*
X153830582Y-115199250D01*
X153886397Y-115003083D01*
X153905215Y-114800000D01*
X153886397Y-114596917D01*
X153830582Y-114400750D01*
X153827476Y-114394513D01*
X153760122Y-114259247D01*
X153739673Y-114218179D01*
X153622550Y-114063083D01*
X153616762Y-114055418D01*
X153466041Y-113918019D01*
X153466039Y-113918017D01*
X153372336Y-113859999D01*
X160254785Y-113859999D01*
X160254785Y-113860000D01*
X160273602Y-114063082D01*
X160329417Y-114259247D01*
X160329422Y-114259260D01*
X160420327Y-114441821D01*
X160543237Y-114604581D01*
X160693958Y-114741980D01*
X160693960Y-114741982D01*
X160787661Y-114799999D01*
X160867363Y-114849348D01*
X161057544Y-114923024D01*
X161258024Y-114960500D01*
X161258026Y-114960500D01*
X161461974Y-114960500D01*
X161461976Y-114960500D01*
X161662456Y-114923024D01*
X161852637Y-114849348D01*
X162026041Y-114741981D01*
X162176764Y-114604579D01*
X162299673Y-114441821D01*
X162390582Y-114259250D01*
X162446397Y-114063083D01*
X162465215Y-113860000D01*
X162465215Y-113859999D01*
X175494785Y-113859999D01*
X175494785Y-113860000D01*
X175513602Y-114063082D01*
X175569417Y-114259247D01*
X175569422Y-114259260D01*
X175660327Y-114441821D01*
X175783237Y-114604581D01*
X175933958Y-114741980D01*
X175933960Y-114741982D01*
X176027661Y-114799999D01*
X176107363Y-114849348D01*
X176297544Y-114923024D01*
X176498024Y-114960500D01*
X176498026Y-114960500D01*
X176701974Y-114960500D01*
X176701976Y-114960500D01*
X176902456Y-114923024D01*
X177092637Y-114849348D01*
X177172339Y-114799999D01*
X183954785Y-114799999D01*
X183954785Y-114800000D01*
X183973602Y-115003082D01*
X184029417Y-115199247D01*
X184029422Y-115199260D01*
X184120327Y-115381821D01*
X184243237Y-115544581D01*
X184393958Y-115681980D01*
X184393960Y-115681982D01*
X184493141Y-115743392D01*
X184567363Y-115789348D01*
X184757544Y-115863024D01*
X184958024Y-115900500D01*
X184958026Y-115900500D01*
X185161974Y-115900500D01*
X185161976Y-115900500D01*
X185362456Y-115863024D01*
X185552637Y-115789348D01*
X185726041Y-115681981D01*
X185876764Y-115544579D01*
X185999673Y-115381821D01*
X186090582Y-115199250D01*
X186146397Y-115003083D01*
X186165215Y-114800000D01*
X186165215Y-114799999D01*
X186494785Y-114799999D01*
X186494785Y-114800000D01*
X186513602Y-115003082D01*
X186569417Y-115199247D01*
X186569422Y-115199260D01*
X186660327Y-115381821D01*
X186783237Y-115544581D01*
X186933958Y-115681980D01*
X186933960Y-115681982D01*
X187033141Y-115743392D01*
X187107363Y-115789348D01*
X187297544Y-115863024D01*
X187498024Y-115900500D01*
X187498026Y-115900500D01*
X187701974Y-115900500D01*
X187701976Y-115900500D01*
X187902456Y-115863024D01*
X188092637Y-115789348D01*
X188266041Y-115681981D01*
X188416764Y-115544579D01*
X188539673Y-115381821D01*
X188539674Y-115381819D01*
X188545945Y-115369226D01*
X188593449Y-115317990D01*
X188656944Y-115300500D01*
X192091346Y-115300500D01*
X192158385Y-115320185D01*
X192202346Y-115369229D01*
X192234936Y-115434679D01*
X192234943Y-115434691D01*
X192369020Y-115612238D01*
X192533437Y-115762123D01*
X192533439Y-115762125D01*
X192722595Y-115879245D01*
X192722596Y-115879245D01*
X192722599Y-115879247D01*
X192930060Y-115959618D01*
X193148757Y-116000500D01*
X193148759Y-116000500D01*
X193371241Y-116000500D01*
X193371243Y-116000500D01*
X193589940Y-115959618D01*
X193797401Y-115879247D01*
X193986562Y-115762124D01*
X194150981Y-115612236D01*
X194285058Y-115434689D01*
X194352375Y-115299500D01*
X194365000Y-115274145D01*
X194412503Y-115222907D01*
X194480165Y-115205486D01*
X194546506Y-115227411D01*
X194590461Y-115281723D01*
X194600000Y-115329416D01*
X194600000Y-115744785D01*
X194600002Y-115744808D01*
X194602908Y-115769869D01*
X194602909Y-115769873D01*
X194648211Y-115872474D01*
X194648214Y-115872479D01*
X194727520Y-115951785D01*
X194727525Y-115951788D01*
X194830123Y-115997089D01*
X194855206Y-115999999D01*
X195649999Y-115999999D01*
X195650000Y-115999998D01*
X195650000Y-115225681D01*
X195740756Y-115250000D01*
X195859244Y-115250000D01*
X195950000Y-115225681D01*
X195950000Y-115999999D01*
X196744786Y-115999999D01*
X196744808Y-115999997D01*
X196769869Y-115997091D01*
X196769873Y-115997090D01*
X196872474Y-115951788D01*
X196872479Y-115951785D01*
X196951785Y-115872479D01*
X196951788Y-115872474D01*
X196997089Y-115769877D01*
X196997089Y-115769875D01*
X196999999Y-115744794D01*
X197000000Y-115744791D01*
X197000000Y-114950000D01*
X196225682Y-114950000D01*
X196250000Y-114859244D01*
X196250000Y-114740756D01*
X196225682Y-114650000D01*
X196999999Y-114650000D01*
X196999999Y-113855214D01*
X196999997Y-113855191D01*
X196997091Y-113830130D01*
X196997090Y-113830126D01*
X196951788Y-113727525D01*
X196951785Y-113727520D01*
X196872479Y-113648214D01*
X196872474Y-113648211D01*
X196769876Y-113602910D01*
X196744794Y-113600000D01*
X195950000Y-113600000D01*
X195950000Y-114374318D01*
X195859244Y-114350000D01*
X195740756Y-114350000D01*
X195650000Y-114374318D01*
X195650000Y-113600000D01*
X194855214Y-113600000D01*
X194855191Y-113600002D01*
X194830130Y-113602908D01*
X194830126Y-113602909D01*
X194727525Y-113648211D01*
X194727520Y-113648214D01*
X194648214Y-113727520D01*
X194648211Y-113727525D01*
X194602910Y-113830122D01*
X194602910Y-113830124D01*
X194600000Y-113855205D01*
X194600000Y-114270582D01*
X194580315Y-114337621D01*
X194527511Y-114383376D01*
X194458353Y-114393320D01*
X194394797Y-114364295D01*
X194365000Y-114325854D01*
X194285061Y-114165316D01*
X194285056Y-114165308D01*
X194150979Y-113987761D01*
X193986562Y-113837876D01*
X193986560Y-113837874D01*
X193797404Y-113720754D01*
X193797398Y-113720752D01*
X193589940Y-113640382D01*
X193371243Y-113599500D01*
X193148757Y-113599500D01*
X192930060Y-113640382D01*
X192798864Y-113691207D01*
X192722601Y-113720752D01*
X192722595Y-113720754D01*
X192533439Y-113837874D01*
X192533437Y-113837876D01*
X192369020Y-113987761D01*
X192234943Y-114165308D01*
X192234936Y-114165320D01*
X192202346Y-114230771D01*
X192154843Y-114282009D01*
X192091346Y-114299500D01*
X188656944Y-114299500D01*
X188589905Y-114279815D01*
X188545945Y-114230774D01*
X188539673Y-114218178D01*
X188416762Y-114055418D01*
X188266041Y-113918019D01*
X188266039Y-113918017D01*
X188092642Y-113810655D01*
X188092635Y-113810651D01*
X187997546Y-113773814D01*
X187902456Y-113736976D01*
X187701976Y-113699500D01*
X187498024Y-113699500D01*
X187297544Y-113736976D01*
X187297541Y-113736976D01*
X187297541Y-113736977D01*
X187107364Y-113810651D01*
X187107357Y-113810655D01*
X186933960Y-113918017D01*
X186933958Y-113918019D01*
X186783237Y-114055418D01*
X186660327Y-114218178D01*
X186569422Y-114400739D01*
X186569417Y-114400752D01*
X186513602Y-114596917D01*
X186494785Y-114799999D01*
X186165215Y-114799999D01*
X186146397Y-114596917D01*
X186090582Y-114400750D01*
X186087476Y-114394513D01*
X186020122Y-114259247D01*
X185999673Y-114218179D01*
X185882550Y-114063083D01*
X185876762Y-114055418D01*
X185726041Y-113918019D01*
X185726039Y-113918017D01*
X185552642Y-113810655D01*
X185552635Y-113810651D01*
X185457546Y-113773814D01*
X185362456Y-113736976D01*
X185161976Y-113699500D01*
X184958024Y-113699500D01*
X184757544Y-113736976D01*
X184757541Y-113736976D01*
X184757541Y-113736977D01*
X184567364Y-113810651D01*
X184567357Y-113810655D01*
X184393960Y-113918017D01*
X184393958Y-113918019D01*
X184243237Y-114055418D01*
X184120327Y-114218178D01*
X184029422Y-114400739D01*
X184029417Y-114400752D01*
X183973602Y-114596917D01*
X183954785Y-114799999D01*
X177172339Y-114799999D01*
X177266041Y-114741981D01*
X177416764Y-114604579D01*
X177539673Y-114441821D01*
X177630582Y-114259250D01*
X177686397Y-114063083D01*
X177705215Y-113860000D01*
X177702446Y-113830122D01*
X177686397Y-113656917D01*
X177670203Y-113600002D01*
X177630582Y-113460750D01*
X177539673Y-113278179D01*
X177416764Y-113115421D01*
X177416762Y-113115418D01*
X177266041Y-112978019D01*
X177266039Y-112978017D01*
X177092642Y-112870655D01*
X177092635Y-112870651D01*
X176997546Y-112833814D01*
X176902456Y-112796976D01*
X176701976Y-112759500D01*
X176498024Y-112759500D01*
X176297544Y-112796976D01*
X176297541Y-112796976D01*
X176297541Y-112796977D01*
X176107364Y-112870651D01*
X176107357Y-112870655D01*
X175933960Y-112978017D01*
X175933958Y-112978019D01*
X175783237Y-113115418D01*
X175660327Y-113278178D01*
X175569422Y-113460739D01*
X175569417Y-113460752D01*
X175513602Y-113656917D01*
X175494785Y-113859999D01*
X162465215Y-113859999D01*
X162462446Y-113830122D01*
X162446397Y-113656917D01*
X162430203Y-113600002D01*
X162390582Y-113460750D01*
X162299673Y-113278179D01*
X162176764Y-113115421D01*
X162176762Y-113115418D01*
X162026041Y-112978019D01*
X162026039Y-112978017D01*
X161852642Y-112870655D01*
X161852635Y-112870651D01*
X161757546Y-112833814D01*
X161662456Y-112796976D01*
X161461976Y-112759500D01*
X161258024Y-112759500D01*
X161057544Y-112796976D01*
X161057541Y-112796976D01*
X161057541Y-112796977D01*
X160867364Y-112870651D01*
X160867357Y-112870655D01*
X160693960Y-112978017D01*
X160693958Y-112978019D01*
X160543237Y-113115418D01*
X160420327Y-113278178D01*
X160329422Y-113460739D01*
X160329417Y-113460752D01*
X160273602Y-113656917D01*
X160254785Y-113859999D01*
X153372336Y-113859999D01*
X153292642Y-113810655D01*
X153292635Y-113810651D01*
X153197546Y-113773814D01*
X153102456Y-113736976D01*
X152901976Y-113699500D01*
X152698024Y-113699500D01*
X152497544Y-113736976D01*
X152497541Y-113736976D01*
X152497541Y-113736977D01*
X152307364Y-113810651D01*
X152307357Y-113810655D01*
X152133960Y-113918017D01*
X152133958Y-113918019D01*
X151983237Y-114055418D01*
X151860327Y-114218178D01*
X151769422Y-114400739D01*
X151769417Y-114400752D01*
X151713602Y-114596917D01*
X151694785Y-114799999D01*
X151365215Y-114799999D01*
X151346397Y-114596917D01*
X151290582Y-114400750D01*
X151287476Y-114394513D01*
X151220122Y-114259247D01*
X151199673Y-114218179D01*
X151082550Y-114063083D01*
X151076762Y-114055418D01*
X150926041Y-113918019D01*
X150926039Y-113918017D01*
X150752642Y-113810655D01*
X150752635Y-113810651D01*
X150657546Y-113773814D01*
X150562456Y-113736976D01*
X150361976Y-113699500D01*
X150158024Y-113699500D01*
X149957544Y-113736976D01*
X149957541Y-113736976D01*
X149957541Y-113736977D01*
X149767364Y-113810651D01*
X149767357Y-113810655D01*
X149593960Y-113918017D01*
X149593958Y-113918019D01*
X149443237Y-114055418D01*
X149320326Y-114218180D01*
X149264263Y-114330771D01*
X149216761Y-114382008D01*
X149153263Y-114399500D01*
X146018449Y-114399500D01*
X145951410Y-114379815D01*
X145907449Y-114330772D01*
X145825061Y-114165316D01*
X145825056Y-114165308D01*
X145690979Y-113987761D01*
X145526562Y-113837876D01*
X145526560Y-113837874D01*
X145337404Y-113720754D01*
X145337398Y-113720752D01*
X145129940Y-113640382D01*
X144911243Y-113599500D01*
X144688757Y-113599500D01*
X144470060Y-113640382D01*
X144338864Y-113691207D01*
X144262601Y-113720752D01*
X144262595Y-113720754D01*
X144073439Y-113837874D01*
X144073437Y-113837876D01*
X143909020Y-113987761D01*
X143774943Y-114165308D01*
X143774938Y-114165316D01*
X143694999Y-114325855D01*
X143647496Y-114377092D01*
X143579833Y-114394513D01*
X143513492Y-114372587D01*
X143469538Y-114318276D01*
X143459999Y-114270583D01*
X143459999Y-113855214D01*
X143459997Y-113855191D01*
X143457091Y-113830130D01*
X143457090Y-113830126D01*
X143411788Y-113727525D01*
X143411785Y-113727520D01*
X143332479Y-113648214D01*
X143332474Y-113648211D01*
X143229876Y-113602910D01*
X143204794Y-113600000D01*
X142410000Y-113600000D01*
X142410000Y-114374318D01*
X142319244Y-114350000D01*
X142200756Y-114350000D01*
X142110000Y-114374318D01*
X142110000Y-113600000D01*
X141315214Y-113600000D01*
X141315191Y-113600002D01*
X141290130Y-113602908D01*
X141290126Y-113602909D01*
X141187525Y-113648211D01*
X141187520Y-113648214D01*
X141108214Y-113727520D01*
X141108211Y-113727525D01*
X141062910Y-113830122D01*
X141062910Y-113830124D01*
X141060000Y-113855205D01*
X139500500Y-113855205D01*
X139500500Y-104059999D01*
X141044571Y-104059999D01*
X141044571Y-104060000D01*
X141064244Y-104272310D01*
X141122596Y-104477392D01*
X141122596Y-104477394D01*
X141217632Y-104668253D01*
X141346127Y-104838406D01*
X141346128Y-104838407D01*
X141503698Y-104982052D01*
X141684981Y-105094298D01*
X141883802Y-105171321D01*
X142081973Y-105208365D01*
X142144253Y-105240033D01*
X142179526Y-105300346D01*
X142176592Y-105370154D01*
X142136383Y-105427294D01*
X142081972Y-105452143D01*
X141883941Y-105489162D01*
X141883936Y-105489163D01*
X141685210Y-105566149D01*
X141685201Y-105566153D01*
X141504002Y-105678346D01*
X141504000Y-105678348D01*
X141346500Y-105821928D01*
X141218059Y-105992010D01*
X141123066Y-106182783D01*
X141123058Y-106182803D01*
X141064738Y-106387781D01*
X141058972Y-106449999D01*
X141058973Y-106450000D01*
X141722555Y-106450000D01*
X141700000Y-106534174D01*
X141700000Y-106665826D01*
X141722555Y-106750000D01*
X141058973Y-106750000D01*
X141064738Y-106812218D01*
X141123058Y-107017196D01*
X141123066Y-107017216D01*
X141218059Y-107207989D01*
X141346500Y-107378071D01*
X141504000Y-107521651D01*
X141504002Y-107521653D01*
X141685201Y-107633846D01*
X141685207Y-107633849D01*
X141883936Y-107710836D01*
X142050000Y-107741879D01*
X142050000Y-107077445D01*
X142134174Y-107100000D01*
X142265826Y-107100000D01*
X142350000Y-107077445D01*
X142350000Y-107741879D01*
X142516063Y-107710836D01*
X142714792Y-107633849D01*
X142714798Y-107633846D01*
X142895997Y-107521653D01*
X142895999Y-107521651D01*
X143053499Y-107378071D01*
X143181940Y-107207989D01*
X143276933Y-107017216D01*
X143276941Y-107017196D01*
X143335261Y-106812218D01*
X143341027Y-106750000D01*
X142677445Y-106750000D01*
X142700000Y-106665826D01*
X142700000Y-106534174D01*
X142677445Y-106450000D01*
X143341027Y-106450000D01*
X143341027Y-106449999D01*
X143335261Y-106387781D01*
X143276941Y-106182803D01*
X143276933Y-106182783D01*
X143181940Y-105992010D01*
X143053499Y-105821928D01*
X142895999Y-105678348D01*
X142895997Y-105678346D01*
X142714798Y-105566153D01*
X142714789Y-105566149D01*
X142516063Y-105489163D01*
X142516058Y-105489162D01*
X142318027Y-105452143D01*
X142255746Y-105420475D01*
X142220473Y-105360162D01*
X142223407Y-105290354D01*
X142263616Y-105233214D01*
X142318024Y-105208366D01*
X142516198Y-105171321D01*
X142715019Y-105094298D01*
X142896302Y-104982052D01*
X143053872Y-104838407D01*
X143182366Y-104668255D01*
X143182367Y-104668253D01*
X143251593Y-104529229D01*
X143299096Y-104477991D01*
X143362593Y-104460500D01*
X152781045Y-104460500D01*
X152848084Y-104480185D01*
X152868726Y-104496819D01*
X159937819Y-111565912D01*
X159937820Y-111565913D01*
X160012387Y-111640480D01*
X160103713Y-111693207D01*
X160205573Y-111720500D01*
X160253263Y-111720500D01*
X160320302Y-111740185D01*
X160364262Y-111789228D01*
X160420327Y-111901821D01*
X160481781Y-111983200D01*
X160543237Y-112064581D01*
X160693958Y-112201980D01*
X160693960Y-112201982D01*
X160793141Y-112263392D01*
X160867363Y-112309348D01*
X161057544Y-112383024D01*
X161258024Y-112420500D01*
X161258026Y-112420500D01*
X161461974Y-112420500D01*
X161461976Y-112420500D01*
X161662456Y-112383024D01*
X161852637Y-112309348D01*
X162026041Y-112201981D01*
X162176764Y-112064579D01*
X162299673Y-111901821D01*
X162390582Y-111719250D01*
X162446397Y-111523083D01*
X162465215Y-111320000D01*
X162465215Y-111319999D01*
X175494785Y-111319999D01*
X175494785Y-111320000D01*
X175513602Y-111523082D01*
X175569417Y-111719247D01*
X175569422Y-111719260D01*
X175660327Y-111901821D01*
X175783237Y-112064581D01*
X175933958Y-112201980D01*
X175933960Y-112201982D01*
X176033141Y-112263392D01*
X176107363Y-112309348D01*
X176297544Y-112383024D01*
X176498024Y-112420500D01*
X176498026Y-112420500D01*
X176701974Y-112420500D01*
X176701976Y-112420500D01*
X176902456Y-112383024D01*
X177092637Y-112309348D01*
X177266041Y-112201981D01*
X177416764Y-112064579D01*
X177539673Y-111901821D01*
X177630582Y-111719250D01*
X177686397Y-111523083D01*
X177705215Y-111320000D01*
X177686397Y-111116917D01*
X177630582Y-110920750D01*
X177539673Y-110738179D01*
X177416764Y-110575421D01*
X177416762Y-110575418D01*
X177266041Y-110438019D01*
X177266039Y-110438017D01*
X177092642Y-110330655D01*
X177092635Y-110330651D01*
X176997546Y-110293814D01*
X176902456Y-110256976D01*
X176701976Y-110219500D01*
X176498024Y-110219500D01*
X176297544Y-110256976D01*
X176297541Y-110256976D01*
X176297541Y-110256977D01*
X176107364Y-110330651D01*
X176107357Y-110330655D01*
X175933960Y-110438017D01*
X175933958Y-110438019D01*
X175783237Y-110575418D01*
X175660327Y-110738178D01*
X175569422Y-110920739D01*
X175569417Y-110920752D01*
X175513602Y-111116917D01*
X175494785Y-111319999D01*
X162465215Y-111319999D01*
X162446397Y-111116917D01*
X162390582Y-110920750D01*
X162299673Y-110738179D01*
X162176764Y-110575421D01*
X162176762Y-110575418D01*
X162026041Y-110438019D01*
X162026039Y-110438017D01*
X161852642Y-110330655D01*
X161852635Y-110330651D01*
X161757546Y-110293814D01*
X161662456Y-110256976D01*
X161461976Y-110219500D01*
X161258024Y-110219500D01*
X161057544Y-110256976D01*
X161057541Y-110256976D01*
X161057541Y-110256977D01*
X160867364Y-110330651D01*
X160867357Y-110330655D01*
X160693960Y-110438017D01*
X160693958Y-110438019D01*
X160543237Y-110575418D01*
X160429850Y-110725568D01*
X160373741Y-110767204D01*
X160304029Y-110771895D01*
X160243215Y-110738522D01*
X155744692Y-106239999D01*
X160254785Y-106239999D01*
X160254785Y-106240000D01*
X160273602Y-106443082D01*
X160329417Y-106639247D01*
X160329422Y-106639260D01*
X160420327Y-106821821D01*
X160543237Y-106984581D01*
X160693958Y-107121980D01*
X160693960Y-107121982D01*
X160793141Y-107183392D01*
X160867363Y-107229348D01*
X161057544Y-107303024D01*
X161258024Y-107340500D01*
X161258026Y-107340500D01*
X161461974Y-107340500D01*
X161461976Y-107340500D01*
X161662456Y-107303024D01*
X161852637Y-107229348D01*
X162026041Y-107121981D01*
X162176764Y-106984579D01*
X162299673Y-106821821D01*
X162390582Y-106639250D01*
X162446397Y-106443083D01*
X162465215Y-106240000D01*
X162446397Y-106036917D01*
X162390582Y-105840750D01*
X162299673Y-105658179D01*
X162176764Y-105495421D01*
X162176762Y-105495418D01*
X162026041Y-105358019D01*
X162026039Y-105358017D01*
X161852642Y-105250655D01*
X161852635Y-105250651D01*
X161743481Y-105208365D01*
X161662456Y-105176976D01*
X161461976Y-105139500D01*
X161258024Y-105139500D01*
X161057544Y-105176976D01*
X161057541Y-105176976D01*
X161057541Y-105176977D01*
X160867364Y-105250651D01*
X160867357Y-105250655D01*
X160693960Y-105358017D01*
X160693958Y-105358019D01*
X160543237Y-105495418D01*
X160420327Y-105658178D01*
X160329422Y-105840739D01*
X160329417Y-105840752D01*
X160273602Y-106036917D01*
X160254785Y-106239999D01*
X155744692Y-106239999D01*
X153244215Y-103739522D01*
X153244213Y-103739520D01*
X153175763Y-103700000D01*
X153175761Y-103699999D01*
X160254785Y-103699999D01*
X160254785Y-103700000D01*
X160273602Y-103903082D01*
X160329417Y-104099247D01*
X160329422Y-104099260D01*
X160420327Y-104281821D01*
X160543237Y-104444581D01*
X160693958Y-104581980D01*
X160693960Y-104581982D01*
X160793141Y-104643392D01*
X160867363Y-104689348D01*
X161057544Y-104763024D01*
X161258024Y-104800500D01*
X161258026Y-104800500D01*
X161461974Y-104800500D01*
X161461976Y-104800500D01*
X161662456Y-104763024D01*
X161852637Y-104689348D01*
X162026041Y-104581981D01*
X162154122Y-104465219D01*
X162176762Y-104444581D01*
X162176764Y-104444579D01*
X162299673Y-104281821D01*
X162390582Y-104099250D01*
X162446397Y-103903083D01*
X162465215Y-103700000D01*
X162465215Y-103699999D01*
X175494785Y-103699999D01*
X175494785Y-103700000D01*
X175513602Y-103903082D01*
X175569417Y-104099247D01*
X175569422Y-104099260D01*
X175660327Y-104281821D01*
X175783237Y-104444581D01*
X175933958Y-104581980D01*
X175933960Y-104581982D01*
X176033141Y-104643392D01*
X176107363Y-104689348D01*
X176297544Y-104763024D01*
X176498024Y-104800500D01*
X176498026Y-104800500D01*
X176701974Y-104800500D01*
X176701976Y-104800500D01*
X176902456Y-104763024D01*
X177092637Y-104689348D01*
X177266041Y-104581981D01*
X177394122Y-104465219D01*
X177416762Y-104444581D01*
X177416764Y-104444579D01*
X177539673Y-104281821D01*
X177630582Y-104099250D01*
X177686397Y-103903083D01*
X177705215Y-103700000D01*
X177686397Y-103496917D01*
X177630582Y-103300750D01*
X177539673Y-103118179D01*
X177416764Y-102955421D01*
X177416762Y-102955418D01*
X177266041Y-102818019D01*
X177266039Y-102818017D01*
X177092642Y-102710655D01*
X177092635Y-102710651D01*
X176981465Y-102667584D01*
X176902456Y-102636976D01*
X176701976Y-102599500D01*
X176498024Y-102599500D01*
X176297544Y-102636976D01*
X176297541Y-102636976D01*
X176297541Y-102636977D01*
X176107364Y-102710651D01*
X176107357Y-102710655D01*
X175933960Y-102818017D01*
X175933958Y-102818019D01*
X175783237Y-102955418D01*
X175660327Y-103118178D01*
X175569422Y-103300739D01*
X175569417Y-103300752D01*
X175513602Y-103496917D01*
X175494785Y-103699999D01*
X162465215Y-103699999D01*
X162446397Y-103496917D01*
X162390582Y-103300750D01*
X162299673Y-103118179D01*
X162176764Y-102955421D01*
X162176762Y-102955418D01*
X162026041Y-102818019D01*
X162026039Y-102818017D01*
X161852642Y-102710655D01*
X161852635Y-102710651D01*
X161741465Y-102667584D01*
X161662456Y-102636976D01*
X161461976Y-102599500D01*
X161258024Y-102599500D01*
X161057544Y-102636976D01*
X161057541Y-102636976D01*
X161057541Y-102636977D01*
X160867364Y-102710651D01*
X160867357Y-102710655D01*
X160693960Y-102818017D01*
X160693958Y-102818019D01*
X160543237Y-102955418D01*
X160420327Y-103118178D01*
X160329422Y-103300739D01*
X160329417Y-103300752D01*
X160273602Y-103496917D01*
X160254785Y-103699999D01*
X153175761Y-103699999D01*
X153152889Y-103686793D01*
X153101957Y-103673146D01*
X153051027Y-103659500D01*
X153051026Y-103659500D01*
X143362593Y-103659500D01*
X143295554Y-103639815D01*
X143251593Y-103590771D01*
X143182367Y-103451746D01*
X143053872Y-103281593D01*
X142896302Y-103137948D01*
X142715019Y-103025702D01*
X142715017Y-103025701D01*
X142533601Y-102955421D01*
X142516198Y-102948679D01*
X142343456Y-102916387D01*
X142281176Y-102884719D01*
X142245903Y-102824407D01*
X142248837Y-102754599D01*
X142289046Y-102697459D01*
X142353764Y-102671128D01*
X142366233Y-102670499D01*
X143094864Y-102670499D01*
X143094879Y-102670497D01*
X143094882Y-102670497D01*
X143119987Y-102667586D01*
X143119988Y-102667585D01*
X143119991Y-102667585D01*
X143222765Y-102622206D01*
X143302206Y-102542765D01*
X143347585Y-102439991D01*
X143350500Y-102414865D01*
X143350500Y-102133625D01*
X143370185Y-102066586D01*
X143422989Y-102020831D01*
X143442397Y-102013853D01*
X143544886Y-101986392D01*
X143659014Y-101920500D01*
X145152695Y-100426819D01*
X145214018Y-100393334D01*
X145240376Y-100390500D01*
X151753043Y-100390500D01*
X151820082Y-100410185D01*
X151825399Y-100413924D01*
X151826457Y-100414534D01*
X151826459Y-100414536D01*
X151826460Y-100414536D01*
X151826463Y-100414538D01*
X151899498Y-100444790D01*
X151972538Y-100475044D01*
X152050919Y-100485363D01*
X152129299Y-100495682D01*
X152129300Y-100495682D01*
X152129301Y-100495682D01*
X152181554Y-100488802D01*
X152286062Y-100475044D01*
X152432141Y-100414536D01*
X152432145Y-100414532D01*
X152439176Y-100410474D01*
X152440182Y-100412216D01*
X152495232Y-100390931D01*
X152505557Y-100390500D01*
X160313910Y-100390500D01*
X160380949Y-100410185D01*
X160426704Y-100462989D01*
X160436648Y-100532147D01*
X160421953Y-100572585D01*
X160422882Y-100573048D01*
X160329422Y-100760739D01*
X160329417Y-100760752D01*
X160273602Y-100956917D01*
X160254785Y-101159999D01*
X160254785Y-101160000D01*
X160273602Y-101363082D01*
X160329417Y-101559247D01*
X160329422Y-101559260D01*
X160420327Y-101741821D01*
X160543237Y-101904581D01*
X160693958Y-102041980D01*
X160693960Y-102041982D01*
X160793141Y-102103392D01*
X160867363Y-102149348D01*
X161057544Y-102223024D01*
X161258024Y-102260500D01*
X161258026Y-102260500D01*
X161461974Y-102260500D01*
X161461976Y-102260500D01*
X161662456Y-102223024D01*
X161852637Y-102149348D01*
X162026041Y-102041981D01*
X162154122Y-101925219D01*
X162176762Y-101904581D01*
X162176764Y-101904579D01*
X162299673Y-101741821D01*
X162390582Y-101559250D01*
X162446397Y-101363083D01*
X162465215Y-101160000D01*
X162446397Y-100956917D01*
X162390582Y-100760750D01*
X162299673Y-100578179D01*
X162299672Y-100578178D01*
X162297118Y-100573048D01*
X162298602Y-100572308D01*
X162282108Y-100512406D01*
X162302922Y-100445708D01*
X162356491Y-100400852D01*
X162406090Y-100390500D01*
X175553910Y-100390500D01*
X175620949Y-100410185D01*
X175666704Y-100462989D01*
X175676648Y-100532147D01*
X175661953Y-100572585D01*
X175662882Y-100573048D01*
X175569422Y-100760739D01*
X175569417Y-100760752D01*
X175513602Y-100956917D01*
X175494785Y-101159999D01*
X175494785Y-101160000D01*
X175513602Y-101363082D01*
X175569417Y-101559247D01*
X175569422Y-101559260D01*
X175660327Y-101741821D01*
X175783237Y-101904581D01*
X175933958Y-102041980D01*
X175933960Y-102041982D01*
X176033141Y-102103392D01*
X176107363Y-102149348D01*
X176297544Y-102223024D01*
X176498024Y-102260500D01*
X176498026Y-102260500D01*
X176701974Y-102260500D01*
X176701976Y-102260500D01*
X176902456Y-102223024D01*
X177092637Y-102149348D01*
X177266041Y-102041981D01*
X177394122Y-101925219D01*
X177416762Y-101904581D01*
X177416764Y-101904579D01*
X177539673Y-101741821D01*
X177630582Y-101559250D01*
X177686397Y-101363083D01*
X177705215Y-101160000D01*
X177686397Y-100956917D01*
X177630582Y-100760750D01*
X177539673Y-100578179D01*
X177539672Y-100578178D01*
X177537118Y-100573048D01*
X177538602Y-100572308D01*
X177522108Y-100512406D01*
X177542922Y-100445708D01*
X177596491Y-100400852D01*
X177646090Y-100390500D01*
X184301590Y-100390500D01*
X184301592Y-100390500D01*
X184428886Y-100356392D01*
X184543014Y-100290500D01*
X190002890Y-94830622D01*
X190064213Y-94797138D01*
X190133905Y-94802122D01*
X190178252Y-94830623D01*
X190227235Y-94879606D01*
X190330009Y-94924985D01*
X190355135Y-94927900D01*
X190673412Y-94927899D01*
X190740449Y-94947583D01*
X190786204Y-95000387D01*
X190796148Y-95069546D01*
X190767123Y-95133101D01*
X190723846Y-95165178D01*
X190547527Y-95243680D01*
X190547525Y-95243681D01*
X190478536Y-95293803D01*
X190478536Y-95293804D01*
X190922354Y-95737622D01*
X190884204Y-95747844D01*
X190815795Y-95787340D01*
X190759940Y-95843195D01*
X190720444Y-95911604D01*
X190710222Y-95949754D01*
X190263508Y-95503040D01*
X190173279Y-95659323D01*
X190114819Y-95839245D01*
X190095043Y-96027400D01*
X190114819Y-96215554D01*
X190173281Y-96395481D01*
X190173282Y-96395483D01*
X190263506Y-96551758D01*
X190263508Y-96551759D01*
X190710221Y-96105045D01*
X190720444Y-96143196D01*
X190759940Y-96211605D01*
X190815795Y-96267460D01*
X190884204Y-96306956D01*
X190922353Y-96317177D01*
X190478535Y-96760994D01*
X190547522Y-96811117D01*
X190720355Y-96888065D01*
X190905406Y-96927400D01*
X191094594Y-96927400D01*
X191279644Y-96888065D01*
X191452480Y-96811114D01*
X191521462Y-96760994D01*
X191521463Y-96760994D01*
X191077646Y-96317177D01*
X191115796Y-96306956D01*
X191184205Y-96267460D01*
X191240060Y-96211605D01*
X191279556Y-96143196D01*
X191289778Y-96105046D01*
X191736490Y-96551758D01*
X191826718Y-96395479D01*
X191826721Y-96395472D01*
X191885180Y-96215554D01*
X191904956Y-96027400D01*
X191885180Y-95839245D01*
X191826718Y-95659319D01*
X191736491Y-95503040D01*
X191736490Y-95503039D01*
X191289777Y-95949752D01*
X191279556Y-95911604D01*
X191240060Y-95843195D01*
X191184205Y-95787340D01*
X191115796Y-95747844D01*
X191077646Y-95737622D01*
X191521463Y-95293805D01*
X191521462Y-95293804D01*
X191452477Y-95243682D01*
X191276152Y-95165179D01*
X191222915Y-95119929D01*
X191202593Y-95053080D01*
X191221638Y-94985856D01*
X191274003Y-94939600D01*
X191326585Y-94927899D01*
X191644864Y-94927899D01*
X191644879Y-94927897D01*
X191644882Y-94927897D01*
X191669987Y-94924986D01*
X191669988Y-94924985D01*
X191669991Y-94924985D01*
X191772765Y-94879606D01*
X191852206Y-94800165D01*
X191897585Y-94697391D01*
X191900500Y-94672265D01*
X191900500Y-94651900D01*
X191920185Y-94584861D01*
X191972989Y-94539106D01*
X192024500Y-94527900D01*
X193346790Y-94527900D01*
X193346792Y-94527900D01*
X193474086Y-94493792D01*
X193588214Y-94427900D01*
X194858168Y-93157944D01*
X194919489Y-93124461D01*
X194989180Y-93129445D01*
X195045114Y-93171316D01*
X195059277Y-93195533D01*
X195097794Y-93282765D01*
X195177235Y-93362206D01*
X195280009Y-93407585D01*
X195305135Y-93410500D01*
X196033758Y-93410499D01*
X196100795Y-93430183D01*
X196146550Y-93482987D01*
X196156494Y-93552146D01*
X196127469Y-93615702D01*
X196068691Y-93653476D01*
X196056542Y-93656388D01*
X196000116Y-93666935D01*
X195883802Y-93688679D01*
X195883800Y-93688679D01*
X195883798Y-93688680D01*
X195684982Y-93765701D01*
X195684980Y-93765702D01*
X195503699Y-93877947D01*
X195346127Y-94021593D01*
X195217632Y-94191746D01*
X195148408Y-94330770D01*
X195100906Y-94382007D01*
X195037408Y-94399499D01*
X194995574Y-94399499D01*
X194893713Y-94426793D01*
X194893711Y-94426793D01*
X194893711Y-94426794D01*
X194865231Y-94443237D01*
X194839916Y-94457853D01*
X194802384Y-94479522D01*
X182040426Y-107241481D01*
X181979103Y-107274966D01*
X181952745Y-107277800D01*
X177415197Y-107277800D01*
X177348158Y-107258115D01*
X177302403Y-107205311D01*
X177292459Y-107136153D01*
X177321484Y-107072597D01*
X177331659Y-107062163D01*
X177416762Y-106984581D01*
X177416764Y-106984579D01*
X177539673Y-106821821D01*
X177630582Y-106639250D01*
X177686397Y-106443083D01*
X177705215Y-106240000D01*
X177686397Y-106036917D01*
X177630582Y-105840750D01*
X177539673Y-105658179D01*
X177416764Y-105495421D01*
X177416762Y-105495418D01*
X177266041Y-105358019D01*
X177266039Y-105358017D01*
X177092642Y-105250655D01*
X177092635Y-105250651D01*
X176983481Y-105208365D01*
X176902456Y-105176976D01*
X176701976Y-105139500D01*
X176498024Y-105139500D01*
X176297544Y-105176976D01*
X176297541Y-105176976D01*
X176297541Y-105176977D01*
X176107364Y-105250651D01*
X176107357Y-105250655D01*
X175933960Y-105358017D01*
X175933958Y-105358019D01*
X175783237Y-105495418D01*
X175660327Y-105658178D01*
X175569422Y-105840739D01*
X175569417Y-105840752D01*
X175513602Y-106036917D01*
X175494785Y-106239999D01*
X175494785Y-106240000D01*
X175513602Y-106443082D01*
X175569417Y-106639247D01*
X175569422Y-106639260D01*
X175660327Y-106821821D01*
X175783237Y-106984581D01*
X175868341Y-107062163D01*
X175904623Y-107121874D01*
X175902862Y-107191722D01*
X175863619Y-107249529D01*
X175799352Y-107276944D01*
X175784803Y-107277800D01*
X163510673Y-107277800D01*
X163408810Y-107305093D01*
X163317487Y-107357820D01*
X163317484Y-107357822D01*
X162476784Y-108198521D01*
X162415461Y-108232006D01*
X162345769Y-108227022D01*
X162290149Y-108185567D01*
X162176762Y-108035418D01*
X162026041Y-107898019D01*
X162026039Y-107898017D01*
X161852642Y-107790655D01*
X161852635Y-107790651D01*
X161726738Y-107741879D01*
X161662456Y-107716976D01*
X161461976Y-107679500D01*
X161258024Y-107679500D01*
X161057544Y-107716976D01*
X161057541Y-107716976D01*
X161057541Y-107716977D01*
X160867364Y-107790651D01*
X160867357Y-107790655D01*
X160693960Y-107898017D01*
X160693958Y-107898019D01*
X160543237Y-108035418D01*
X160420327Y-108198178D01*
X160329422Y-108380739D01*
X160329417Y-108380752D01*
X160273602Y-108576917D01*
X160254785Y-108779999D01*
X160254785Y-108780000D01*
X160273602Y-108983082D01*
X160329417Y-109179247D01*
X160329422Y-109179260D01*
X160420327Y-109361821D01*
X160543237Y-109524581D01*
X160693958Y-109661980D01*
X160693960Y-109661982D01*
X160793141Y-109723392D01*
X160867363Y-109769348D01*
X161057544Y-109843024D01*
X161258024Y-109880500D01*
X161258026Y-109880500D01*
X161461974Y-109880500D01*
X161461976Y-109880500D01*
X161662456Y-109843024D01*
X161852637Y-109769348D01*
X162026041Y-109661981D01*
X162176764Y-109524579D01*
X162299673Y-109361821D01*
X162355737Y-109249228D01*
X162403239Y-109197992D01*
X162466737Y-109180500D01*
X162514425Y-109180500D01*
X162514427Y-109180500D01*
X162616288Y-109153207D01*
X162707613Y-109100480D01*
X163692974Y-108115119D01*
X163754297Y-108081634D01*
X163780655Y-108078800D01*
X175519504Y-108078800D01*
X175586543Y-108098485D01*
X175632298Y-108151289D01*
X175642242Y-108220447D01*
X175630504Y-108258072D01*
X175569422Y-108380739D01*
X175569417Y-108380752D01*
X175513602Y-108576917D01*
X175494785Y-108779999D01*
X175494785Y-108780000D01*
X175513602Y-108983082D01*
X175569417Y-109179247D01*
X175569422Y-109179260D01*
X175660327Y-109361821D01*
X175783237Y-109524581D01*
X175933958Y-109661980D01*
X175933960Y-109661982D01*
X176033141Y-109723392D01*
X176107363Y-109769348D01*
X176297544Y-109843024D01*
X176498024Y-109880500D01*
X176498026Y-109880500D01*
X176701974Y-109880500D01*
X176701976Y-109880500D01*
X176902456Y-109843024D01*
X177092637Y-109769348D01*
X177266041Y-109661981D01*
X177416764Y-109524579D01*
X177539673Y-109361821D01*
X177630582Y-109179250D01*
X177686397Y-108983083D01*
X177705215Y-108780000D01*
X177686397Y-108576917D01*
X177630582Y-108380750D01*
X177569496Y-108258072D01*
X177557235Y-108189286D01*
X177584108Y-108124791D01*
X177641584Y-108085064D01*
X177680496Y-108078800D01*
X182222725Y-108078800D01*
X182222727Y-108078800D01*
X182324588Y-108051507D01*
X182415913Y-107998780D01*
X195026177Y-95388513D01*
X195087498Y-95355030D01*
X195157190Y-95360014D01*
X195213123Y-95401886D01*
X195215908Y-95405970D01*
X195346127Y-95578406D01*
X195346128Y-95578407D01*
X195503698Y-95722052D01*
X195684981Y-95834298D01*
X195883802Y-95911321D01*
X196081973Y-95948365D01*
X196144253Y-95980033D01*
X196179526Y-96040346D01*
X196176592Y-96110154D01*
X196136383Y-96167294D01*
X196081972Y-96192143D01*
X195883941Y-96229162D01*
X195883936Y-96229163D01*
X195685210Y-96306149D01*
X195685201Y-96306153D01*
X195504002Y-96418346D01*
X195504000Y-96418348D01*
X195346500Y-96561928D01*
X195218059Y-96732010D01*
X195123066Y-96922783D01*
X195123058Y-96922803D01*
X195064738Y-97127781D01*
X195058972Y-97189999D01*
X195058973Y-97190000D01*
X195722555Y-97190000D01*
X195700000Y-97274174D01*
X195700000Y-97405826D01*
X195722555Y-97490000D01*
X195058973Y-97490000D01*
X195064738Y-97552218D01*
X195123058Y-97757196D01*
X195123066Y-97757216D01*
X195218059Y-97947989D01*
X195346500Y-98118071D01*
X195504000Y-98261651D01*
X195504002Y-98261653D01*
X195685201Y-98373846D01*
X195685207Y-98373849D01*
X195883936Y-98450836D01*
X196050000Y-98481879D01*
X196050000Y-97817445D01*
X196134174Y-97840000D01*
X196265826Y-97840000D01*
X196350000Y-97817445D01*
X196350000Y-98481879D01*
X196516063Y-98450836D01*
X196714792Y-98373849D01*
X196714798Y-98373846D01*
X196895997Y-98261653D01*
X196895999Y-98261651D01*
X197053499Y-98118071D01*
X197181940Y-97947989D01*
X197276933Y-97757216D01*
X197276941Y-97757196D01*
X197335261Y-97552218D01*
X197341027Y-97490000D01*
X196677445Y-97490000D01*
X196700000Y-97405826D01*
X196700000Y-97274174D01*
X196677445Y-97190000D01*
X197341027Y-97190000D01*
X197341027Y-97189999D01*
X197335261Y-97127781D01*
X197276941Y-96922803D01*
X197276933Y-96922783D01*
X197181940Y-96732010D01*
X197053499Y-96561928D01*
X196895999Y-96418348D01*
X196895997Y-96418346D01*
X196714798Y-96306153D01*
X196714789Y-96306149D01*
X196516063Y-96229163D01*
X196516058Y-96229162D01*
X196318027Y-96192143D01*
X196255746Y-96160475D01*
X196220473Y-96100162D01*
X196223407Y-96030354D01*
X196263616Y-95973214D01*
X196318024Y-95948366D01*
X196516198Y-95911321D01*
X196715019Y-95834298D01*
X196896302Y-95722052D01*
X197053872Y-95578407D01*
X197182366Y-95408255D01*
X197185537Y-95401886D01*
X197277403Y-95217394D01*
X197277403Y-95217393D01*
X197277405Y-95217389D01*
X197335756Y-95012310D01*
X197355429Y-94800000D01*
X197335756Y-94587690D01*
X197277405Y-94382611D01*
X197277403Y-94382606D01*
X197277403Y-94382605D01*
X197182367Y-94191746D01*
X197053872Y-94021593D01*
X197046592Y-94014956D01*
X196896302Y-93877948D01*
X196715019Y-93765702D01*
X196715017Y-93765701D01*
X196615608Y-93727190D01*
X196516198Y-93688679D01*
X196343456Y-93656387D01*
X196281176Y-93624719D01*
X196245903Y-93564407D01*
X196248837Y-93494599D01*
X196289046Y-93437459D01*
X196353764Y-93411128D01*
X196366233Y-93410499D01*
X197094864Y-93410499D01*
X197094879Y-93410497D01*
X197094882Y-93410497D01*
X197119987Y-93407586D01*
X197119988Y-93407585D01*
X197119991Y-93407585D01*
X197222765Y-93362206D01*
X197302206Y-93282765D01*
X197347585Y-93179991D01*
X197350500Y-93154865D01*
X197350499Y-91365136D01*
X197350497Y-91365117D01*
X197347586Y-91340012D01*
X197347585Y-91340010D01*
X197347585Y-91340009D01*
X197302206Y-91237235D01*
X197222765Y-91157794D01*
X197222763Y-91157793D01*
X197119992Y-91112415D01*
X197094865Y-91109500D01*
X195305143Y-91109500D01*
X195305117Y-91109502D01*
X195280012Y-91112413D01*
X195280008Y-91112415D01*
X195177235Y-91157793D01*
X195097794Y-91237234D01*
X195052415Y-91340006D01*
X195052415Y-91340008D01*
X195049500Y-91365131D01*
X195049500Y-91646374D01*
X195029815Y-91713413D01*
X194977011Y-91759168D01*
X194957595Y-91766148D01*
X194855114Y-91793608D01*
X194855112Y-91793608D01*
X194855112Y-91793609D01*
X194740986Y-91859500D01*
X194740983Y-91859502D01*
X193109905Y-93490581D01*
X193048582Y-93524066D01*
X193022224Y-93526900D01*
X192024499Y-93526900D01*
X191957460Y-93507215D01*
X191911705Y-93454411D01*
X191900499Y-93402900D01*
X191900499Y-93382543D01*
X191900499Y-93382536D01*
X191900497Y-93382517D01*
X191897586Y-93357412D01*
X191897585Y-93357410D01*
X191897585Y-93357409D01*
X191852206Y-93254635D01*
X191772765Y-93175194D01*
X191726722Y-93154864D01*
X191669992Y-93129815D01*
X191644865Y-93126900D01*
X190355143Y-93126900D01*
X190355117Y-93126902D01*
X190330012Y-93129813D01*
X190330008Y-93129815D01*
X190227235Y-93175193D01*
X190147794Y-93254634D01*
X190102415Y-93357406D01*
X190102415Y-93357408D01*
X190099500Y-93382531D01*
X190099500Y-93413774D01*
X190079815Y-93480813D01*
X190027011Y-93526568D01*
X190007593Y-93533549D01*
X189957840Y-93546879D01*
X189957841Y-93546880D01*
X189905112Y-93561008D01*
X189905111Y-93561009D01*
X189790989Y-93626898D01*
X189790983Y-93626902D01*
X184064705Y-99353181D01*
X184003382Y-99386666D01*
X183977024Y-99389500D01*
X177646090Y-99389500D01*
X177579051Y-99369815D01*
X177533296Y-99317011D01*
X177523352Y-99247853D01*
X177538046Y-99207414D01*
X177537118Y-99206952D01*
X177630577Y-99019260D01*
X177630576Y-99019260D01*
X177630582Y-99019250D01*
X177686397Y-98823083D01*
X177705215Y-98620000D01*
X177692416Y-98481879D01*
X177686397Y-98416917D01*
X177636139Y-98240282D01*
X177630582Y-98220750D01*
X177539673Y-98038179D01*
X177416764Y-97875421D01*
X177416762Y-97875418D01*
X177266041Y-97738019D01*
X177266039Y-97738017D01*
X177092642Y-97630655D01*
X177092635Y-97630651D01*
X176967069Y-97582007D01*
X176902456Y-97556976D01*
X176701976Y-97519500D01*
X176498024Y-97519500D01*
X176397784Y-97538238D01*
X176297542Y-97556976D01*
X176297534Y-97556979D01*
X176232927Y-97582007D01*
X176163303Y-97587868D01*
X176101564Y-97555158D01*
X176100454Y-97554061D01*
X174626392Y-96079999D01*
X175494785Y-96079999D01*
X175494785Y-96080000D01*
X175513602Y-96283082D01*
X175569417Y-96479247D01*
X175569422Y-96479260D01*
X175629686Y-96600287D01*
X175660327Y-96661821D01*
X175675833Y-96682355D01*
X175679255Y-96686886D01*
X175700074Y-96729516D01*
X175706792Y-96754585D01*
X175706792Y-96754587D01*
X175729077Y-96793185D01*
X175759520Y-96845913D01*
X175834087Y-96920480D01*
X175925412Y-96973207D01*
X175954793Y-96981079D01*
X175987969Y-96995422D01*
X176107363Y-97069348D01*
X176297544Y-97143024D01*
X176498024Y-97180500D01*
X176498026Y-97180500D01*
X176701974Y-97180500D01*
X176701976Y-97180500D01*
X176902456Y-97143024D01*
X177092637Y-97069348D01*
X177266041Y-96961981D01*
X177416764Y-96824579D01*
X177539673Y-96661821D01*
X177630582Y-96479250D01*
X177686397Y-96283083D01*
X177705215Y-96080000D01*
X177693017Y-95948365D01*
X177686397Y-95876917D01*
X177643855Y-95727400D01*
X177630582Y-95680750D01*
X177630574Y-95680734D01*
X177580301Y-95579772D01*
X177539673Y-95498179D01*
X177465909Y-95400500D01*
X177416762Y-95335418D01*
X177266041Y-95198019D01*
X177266039Y-95198017D01*
X177092642Y-95090655D01*
X177092635Y-95090651D01*
X176931640Y-95028282D01*
X176902456Y-95016976D01*
X176701976Y-94979500D01*
X176498024Y-94979500D01*
X176297544Y-95016976D01*
X176297541Y-95016976D01*
X176297541Y-95016977D01*
X176107364Y-95090651D01*
X176107357Y-95090655D01*
X175933960Y-95198017D01*
X175933958Y-95198019D01*
X175783237Y-95335418D01*
X175660327Y-95498178D01*
X175569422Y-95680739D01*
X175569417Y-95680752D01*
X175513602Y-95876917D01*
X175494785Y-96079999D01*
X174626392Y-96079999D01*
X173225915Y-94679522D01*
X173225913Y-94679520D01*
X173158329Y-94640500D01*
X173134589Y-94626793D01*
X173083657Y-94613146D01*
X173032727Y-94599500D01*
X173032726Y-94599500D01*
X162151393Y-94599500D01*
X162084354Y-94579815D01*
X162038599Y-94527011D01*
X162028655Y-94457853D01*
X162057680Y-94394297D01*
X162067855Y-94383863D01*
X162176762Y-94284581D01*
X162176764Y-94284579D01*
X162299673Y-94121821D01*
X162390582Y-93939250D01*
X162446397Y-93743083D01*
X162465215Y-93540000D01*
X162465215Y-93539999D01*
X175494785Y-93539999D01*
X175494785Y-93540000D01*
X175513602Y-93743082D01*
X175569417Y-93939247D01*
X175569422Y-93939260D01*
X175660327Y-94121821D01*
X175783237Y-94284581D01*
X175933958Y-94421980D01*
X175933960Y-94421982D01*
X175968290Y-94443238D01*
X176107363Y-94529348D01*
X176297544Y-94603024D01*
X176498024Y-94640500D01*
X176498026Y-94640500D01*
X176701974Y-94640500D01*
X176701976Y-94640500D01*
X176902456Y-94603024D01*
X177092637Y-94529348D01*
X177266041Y-94421981D01*
X177416764Y-94284579D01*
X177539673Y-94121821D01*
X177630582Y-93939250D01*
X177686397Y-93743083D01*
X177705215Y-93540000D01*
X177686397Y-93336917D01*
X177630582Y-93140750D01*
X177539673Y-92958179D01*
X177416764Y-92795421D01*
X177416762Y-92795418D01*
X177266041Y-92658019D01*
X177266039Y-92658017D01*
X177092642Y-92550655D01*
X177092635Y-92550651D01*
X176997546Y-92513814D01*
X176902456Y-92476976D01*
X176701976Y-92439500D01*
X176498024Y-92439500D01*
X176297544Y-92476976D01*
X176297541Y-92476976D01*
X176297541Y-92476977D01*
X176107364Y-92550651D01*
X176107357Y-92550655D01*
X175933960Y-92658017D01*
X175933958Y-92658019D01*
X175783237Y-92795418D01*
X175660327Y-92958178D01*
X175569422Y-93140739D01*
X175569417Y-93140752D01*
X175513602Y-93336917D01*
X175494785Y-93539999D01*
X162465215Y-93539999D01*
X162446397Y-93336917D01*
X162390582Y-93140750D01*
X162299673Y-92958179D01*
X162176764Y-92795421D01*
X162176762Y-92795418D01*
X162026041Y-92658019D01*
X162026039Y-92658017D01*
X161852642Y-92550655D01*
X161852635Y-92550651D01*
X161757546Y-92513814D01*
X161662456Y-92476976D01*
X161461976Y-92439500D01*
X161258024Y-92439500D01*
X161057544Y-92476976D01*
X161057541Y-92476976D01*
X161057541Y-92476977D01*
X160867364Y-92550651D01*
X160867357Y-92550655D01*
X160693960Y-92658017D01*
X160693958Y-92658019D01*
X160543237Y-92795418D01*
X160420327Y-92958178D01*
X160329422Y-93140739D01*
X160329417Y-93140752D01*
X160273602Y-93336917D01*
X160254785Y-93539999D01*
X160254785Y-93540000D01*
X160273602Y-93743082D01*
X160329417Y-93939247D01*
X160329422Y-93939260D01*
X160420327Y-94121821D01*
X160543237Y-94284581D01*
X160630206Y-94363863D01*
X160666488Y-94423574D01*
X160664727Y-94493422D01*
X160625484Y-94551229D01*
X160561217Y-94578644D01*
X160546668Y-94579500D01*
X147721755Y-94579500D01*
X147654716Y-94559815D01*
X147634074Y-94543181D01*
X147370415Y-94279522D01*
X147370413Y-94279520D01*
X147324750Y-94253156D01*
X147279089Y-94226793D01*
X147228157Y-94213146D01*
X147177227Y-94199500D01*
X147177226Y-94199500D01*
X146706580Y-94199500D01*
X146639541Y-94179815D01*
X146631093Y-94173876D01*
X146628283Y-94171720D01*
X146628282Y-94171718D01*
X146502841Y-94075464D01*
X146356762Y-94014956D01*
X146356760Y-94014955D01*
X146200001Y-93994318D01*
X146199999Y-93994318D01*
X146043239Y-94014955D01*
X146043237Y-94014956D01*
X145897160Y-94075463D01*
X145771718Y-94171718D01*
X145675463Y-94297160D01*
X145614956Y-94443237D01*
X145614955Y-94443239D01*
X145594318Y-94599998D01*
X145594318Y-94600001D01*
X145614955Y-94756760D01*
X145614956Y-94756762D01*
X145675464Y-94902841D01*
X145771718Y-95028282D01*
X145897159Y-95124536D01*
X146043238Y-95185044D01*
X146121619Y-95195363D01*
X146199999Y-95205682D01*
X146200000Y-95205682D01*
X146200001Y-95205682D01*
X146252254Y-95198802D01*
X146356762Y-95185044D01*
X146502841Y-95124536D01*
X146628282Y-95028282D01*
X146628283Y-95028279D01*
X146631093Y-95026124D01*
X146696263Y-95000930D01*
X146706580Y-95000500D01*
X146907245Y-95000500D01*
X146974284Y-95020185D01*
X146994926Y-95036819D01*
X147258587Y-95300480D01*
X147349912Y-95353207D01*
X147451773Y-95380500D01*
X160278657Y-95380500D01*
X160345696Y-95400185D01*
X160391451Y-95452989D01*
X160401395Y-95522147D01*
X160389657Y-95559771D01*
X160329424Y-95680734D01*
X160329417Y-95680752D01*
X160273602Y-95876917D01*
X160254785Y-96079999D01*
X160254785Y-96080000D01*
X160273602Y-96283082D01*
X160329417Y-96479247D01*
X160329422Y-96479260D01*
X160420327Y-96661821D01*
X160543237Y-96824581D01*
X160693958Y-96961980D01*
X160693960Y-96961982D01*
X160793141Y-97023392D01*
X160867363Y-97069348D01*
X161057544Y-97143024D01*
X161258024Y-97180500D01*
X161258026Y-97180500D01*
X161461974Y-97180500D01*
X161461976Y-97180500D01*
X161662456Y-97143024D01*
X161852637Y-97069348D01*
X162026041Y-96961981D01*
X162176764Y-96824579D01*
X162299673Y-96661821D01*
X162390582Y-96479250D01*
X162446397Y-96283083D01*
X162465215Y-96080000D01*
X162453017Y-95948365D01*
X162446397Y-95876917D01*
X162403855Y-95727400D01*
X162390582Y-95680750D01*
X162390574Y-95680734D01*
X162340301Y-95579772D01*
X162328040Y-95510987D01*
X162354913Y-95446492D01*
X162412389Y-95406764D01*
X162451301Y-95400500D01*
X172762745Y-95400500D01*
X172829784Y-95420185D01*
X172850426Y-95436819D01*
X175532274Y-98118667D01*
X175565759Y-98179990D01*
X175563860Y-98240282D01*
X175513602Y-98416921D01*
X175494785Y-98619999D01*
X175494785Y-98620000D01*
X175513602Y-98823082D01*
X175569417Y-99019247D01*
X175569422Y-99019260D01*
X175662882Y-99206952D01*
X175661397Y-99207691D01*
X175677892Y-99267594D01*
X175657078Y-99334292D01*
X175603509Y-99379148D01*
X175553910Y-99389500D01*
X162406090Y-99389500D01*
X162339051Y-99369815D01*
X162293296Y-99317011D01*
X162283352Y-99247853D01*
X162298046Y-99207414D01*
X162297118Y-99206952D01*
X162390577Y-99019260D01*
X162390576Y-99019260D01*
X162390582Y-99019250D01*
X162446397Y-98823083D01*
X162465215Y-98620000D01*
X162452416Y-98481879D01*
X162446397Y-98416917D01*
X162396139Y-98240282D01*
X162390582Y-98220750D01*
X162299673Y-98038179D01*
X162176764Y-97875421D01*
X162176762Y-97875418D01*
X162026041Y-97738019D01*
X162026039Y-97738017D01*
X161852642Y-97630655D01*
X161852635Y-97630651D01*
X161727069Y-97582007D01*
X161662456Y-97556976D01*
X161461976Y-97519500D01*
X161258024Y-97519500D01*
X161057544Y-97556976D01*
X161057541Y-97556976D01*
X161057541Y-97556977D01*
X160867364Y-97630651D01*
X160867357Y-97630655D01*
X160693960Y-97738017D01*
X160693958Y-97738019D01*
X160543237Y-97875418D01*
X160420327Y-98038178D01*
X160329422Y-98220739D01*
X160329417Y-98220752D01*
X160273602Y-98416917D01*
X160254785Y-98619999D01*
X160254785Y-98620000D01*
X160273602Y-98823082D01*
X160329417Y-99019247D01*
X160329422Y-99019260D01*
X160422882Y-99206952D01*
X160421397Y-99207691D01*
X160437892Y-99267594D01*
X160417078Y-99334292D01*
X160363509Y-99379148D01*
X160313910Y-99389500D01*
X152505557Y-99389500D01*
X152438518Y-99369815D01*
X152433200Y-99366075D01*
X152432136Y-99365461D01*
X152286065Y-99304957D01*
X152286060Y-99304955D01*
X152129301Y-99284318D01*
X152129299Y-99284318D01*
X151972539Y-99304955D01*
X151972534Y-99304957D01*
X151826463Y-99365461D01*
X151819424Y-99369526D01*
X151818417Y-99367783D01*
X151763368Y-99389069D01*
X151753043Y-99389500D01*
X144915807Y-99389500D01*
X144788512Y-99423608D01*
X144674386Y-99489500D01*
X144674383Y-99489502D01*
X143541833Y-100622051D01*
X143480510Y-100655536D01*
X143410818Y-100650552D01*
X143354885Y-100608680D01*
X143340718Y-100584456D01*
X143302206Y-100497235D01*
X143222765Y-100417794D01*
X143119992Y-100372415D01*
X143094865Y-100369500D01*
X141305143Y-100369500D01*
X141305117Y-100369502D01*
X141280012Y-100372413D01*
X141280008Y-100372415D01*
X141177235Y-100417793D01*
X141097794Y-100497234D01*
X141052415Y-100600006D01*
X141052415Y-100600008D01*
X141049500Y-100625131D01*
X141049500Y-102414856D01*
X141049502Y-102414882D01*
X141052413Y-102439987D01*
X141052415Y-102439991D01*
X141097793Y-102542764D01*
X141097794Y-102542765D01*
X141177235Y-102622206D01*
X141280009Y-102667585D01*
X141305135Y-102670500D01*
X142033758Y-102670499D01*
X142100795Y-102690183D01*
X142146550Y-102742987D01*
X142156494Y-102812146D01*
X142127469Y-102875702D01*
X142068691Y-102913476D01*
X142056542Y-102916388D01*
X142000116Y-102926935D01*
X141883802Y-102948679D01*
X141883800Y-102948679D01*
X141883798Y-102948680D01*
X141684982Y-103025701D01*
X141684980Y-103025702D01*
X141503699Y-103137947D01*
X141346127Y-103281593D01*
X141217632Y-103451746D01*
X141122596Y-103642605D01*
X141122596Y-103642607D01*
X141064244Y-103847689D01*
X141044571Y-104059999D01*
X139500500Y-104059999D01*
X139500500Y-88480000D01*
X140732861Y-88480000D01*
X140753365Y-88688186D01*
X140814092Y-88888375D01*
X140912705Y-89072869D01*
X140949799Y-89118067D01*
X141444085Y-88623782D01*
X141444964Y-88627061D01*
X141495124Y-88713940D01*
X141566060Y-88784876D01*
X141652939Y-88835036D01*
X141656217Y-88835914D01*
X141161931Y-89330199D01*
X141161931Y-89330200D01*
X141207126Y-89367292D01*
X141207128Y-89367293D01*
X141391624Y-89465907D01*
X141591815Y-89526634D01*
X141591811Y-89526634D01*
X141800000Y-89547138D01*
X142008186Y-89526634D01*
X142208379Y-89465906D01*
X142392870Y-89367294D01*
X142392874Y-89367291D01*
X142438067Y-89330200D01*
X142438067Y-89330199D01*
X141943783Y-88835914D01*
X141947061Y-88835036D01*
X142033940Y-88784876D01*
X142104876Y-88713940D01*
X142155036Y-88627061D01*
X142155914Y-88623782D01*
X142650199Y-89118067D01*
X142650200Y-89118067D01*
X142687291Y-89072874D01*
X142687294Y-89072870D01*
X142785906Y-88888379D01*
X142846634Y-88688186D01*
X142867138Y-88480000D01*
X142846634Y-88271813D01*
X142785907Y-88071624D01*
X142687293Y-87887128D01*
X142687292Y-87887126D01*
X142650200Y-87841931D01*
X142650199Y-87841931D01*
X142155914Y-88336216D01*
X142155036Y-88332939D01*
X142104876Y-88246060D01*
X142033940Y-88175124D01*
X141947061Y-88124964D01*
X141943782Y-88124085D01*
X142438067Y-87629799D01*
X142392869Y-87592705D01*
X142208375Y-87494092D01*
X142008184Y-87433365D01*
X142008188Y-87433365D01*
X141800000Y-87412861D01*
X141591813Y-87433365D01*
X141391620Y-87494093D01*
X141207130Y-87592704D01*
X141207128Y-87592706D01*
X141161930Y-87629798D01*
X141161930Y-87629799D01*
X141656217Y-88124085D01*
X141652939Y-88124964D01*
X141566060Y-88175124D01*
X141495124Y-88246060D01*
X141444964Y-88332939D01*
X141444085Y-88336216D01*
X140949799Y-87841930D01*
X140949798Y-87841930D01*
X140912706Y-87887128D01*
X140912704Y-87887130D01*
X140814093Y-88071620D01*
X140753365Y-88271813D01*
X140732861Y-88480000D01*
X139500500Y-88480000D01*
X139500500Y-85940000D01*
X140732359Y-85940000D01*
X140752872Y-86148284D01*
X140752873Y-86148286D01*
X140813628Y-86348569D01*
X140895543Y-86501821D01*
X140912291Y-86533153D01*
X141045063Y-86694936D01*
X141175498Y-86801981D01*
X141206850Y-86827711D01*
X141391431Y-86926372D01*
X141591714Y-86987127D01*
X141800000Y-87007641D01*
X142008286Y-86987127D01*
X142208569Y-86926372D01*
X142393150Y-86827711D01*
X142554936Y-86694936D01*
X142687711Y-86533150D01*
X142786372Y-86348569D01*
X142847127Y-86148286D01*
X142867641Y-85940000D01*
X142847127Y-85731714D01*
X142805289Y-85593795D01*
X142804667Y-85523931D01*
X142836268Y-85470123D01*
X143469574Y-84836819D01*
X143530897Y-84803334D01*
X143557255Y-84800500D01*
X144147273Y-84800500D01*
X153593693Y-84800500D01*
X153660732Y-84820185D01*
X153706487Y-84872989D01*
X153716431Y-84942147D01*
X153687406Y-85005703D01*
X153671445Y-85020740D01*
X148209005Y-90483181D01*
X148147682Y-90516666D01*
X148121324Y-90519500D01*
X142811556Y-90519500D01*
X142744517Y-90499815D01*
X142702199Y-90453955D01*
X142687711Y-90426850D01*
X142680594Y-90418178D01*
X142554936Y-90265063D01*
X142393153Y-90132291D01*
X142393151Y-90132290D01*
X142393150Y-90132289D01*
X142208569Y-90033628D01*
X142108427Y-90003250D01*
X142008284Y-89972872D01*
X141800000Y-89952359D01*
X141591715Y-89972872D01*
X141391428Y-90033629D01*
X141206846Y-90132291D01*
X141045063Y-90265063D01*
X140912291Y-90426846D01*
X140813629Y-90611428D01*
X140752872Y-90811715D01*
X140732359Y-91020000D01*
X140752872Y-91228284D01*
X140783250Y-91328427D01*
X140813628Y-91428569D01*
X140895543Y-91581821D01*
X140912291Y-91613153D01*
X141045063Y-91774936D01*
X141175498Y-91881981D01*
X141206850Y-91907711D01*
X141391431Y-92006372D01*
X141591714Y-92067127D01*
X141800000Y-92087641D01*
X142008286Y-92067127D01*
X142208569Y-92006372D01*
X142393150Y-91907711D01*
X142554936Y-91774936D01*
X142687711Y-91613150D01*
X142702199Y-91586044D01*
X142751161Y-91536202D01*
X142811556Y-91520500D01*
X148445890Y-91520500D01*
X148445892Y-91520500D01*
X148573186Y-91486392D01*
X148687314Y-91420500D01*
X149107815Y-90999999D01*
X160254785Y-90999999D01*
X160254785Y-91000000D01*
X160273602Y-91203082D01*
X160329417Y-91399247D01*
X160329422Y-91399260D01*
X160420327Y-91581821D01*
X160543237Y-91744581D01*
X160693958Y-91881980D01*
X160693960Y-91881982D01*
X160735514Y-91907711D01*
X160867363Y-91989348D01*
X161057544Y-92063024D01*
X161258024Y-92100500D01*
X161258026Y-92100500D01*
X161461974Y-92100500D01*
X161461976Y-92100500D01*
X161662456Y-92063024D01*
X161852637Y-91989348D01*
X162026041Y-91881981D01*
X162176764Y-91744579D01*
X162299673Y-91581821D01*
X162390582Y-91399250D01*
X162446397Y-91203083D01*
X162465215Y-91000000D01*
X162465215Y-90999999D01*
X175494785Y-90999999D01*
X175494785Y-91000000D01*
X175513602Y-91203082D01*
X175569417Y-91399247D01*
X175569422Y-91399260D01*
X175660327Y-91581821D01*
X175783237Y-91744581D01*
X175933958Y-91881980D01*
X175933960Y-91881982D01*
X175975514Y-91907711D01*
X176107363Y-91989348D01*
X176297544Y-92063024D01*
X176498024Y-92100500D01*
X176498026Y-92100500D01*
X176701974Y-92100500D01*
X176701976Y-92100500D01*
X176902456Y-92063024D01*
X177092637Y-91989348D01*
X177266041Y-91881981D01*
X177416764Y-91744579D01*
X177539673Y-91581821D01*
X177630582Y-91399250D01*
X177686397Y-91203083D01*
X177705215Y-91000000D01*
X177686397Y-90796917D01*
X177630582Y-90600750D01*
X177539673Y-90418179D01*
X177424046Y-90265064D01*
X177416762Y-90255418D01*
X177266041Y-90118019D01*
X177266039Y-90118017D01*
X177092642Y-90010655D01*
X177092635Y-90010651D01*
X176942164Y-89952359D01*
X176902456Y-89936976D01*
X176701976Y-89899500D01*
X176498024Y-89899500D01*
X176297544Y-89936976D01*
X176297541Y-89936976D01*
X176297541Y-89936977D01*
X176107364Y-90010651D01*
X176107357Y-90010655D01*
X175933960Y-90118017D01*
X175933958Y-90118019D01*
X175783237Y-90255418D01*
X175660327Y-90418178D01*
X175569422Y-90600739D01*
X175569417Y-90600752D01*
X175513602Y-90796917D01*
X175494785Y-90999999D01*
X162465215Y-90999999D01*
X162446397Y-90796917D01*
X162390582Y-90600750D01*
X162299673Y-90418179D01*
X162184046Y-90265064D01*
X162176762Y-90255418D01*
X162026041Y-90118019D01*
X162026039Y-90118017D01*
X161852642Y-90010655D01*
X161852635Y-90010651D01*
X161702164Y-89952359D01*
X161662456Y-89936976D01*
X161461976Y-89899500D01*
X161258024Y-89899500D01*
X161057544Y-89936976D01*
X161057541Y-89936976D01*
X161057541Y-89936977D01*
X160867364Y-90010651D01*
X160867357Y-90010655D01*
X160693960Y-90118017D01*
X160693958Y-90118019D01*
X160543237Y-90255418D01*
X160420327Y-90418178D01*
X160329422Y-90600739D01*
X160329417Y-90600752D01*
X160273602Y-90796917D01*
X160254785Y-90999999D01*
X149107815Y-90999999D01*
X151797815Y-88309999D01*
X160269186Y-88309999D01*
X160269187Y-88310000D01*
X160882555Y-88310000D01*
X160860000Y-88394174D01*
X160860000Y-88525826D01*
X160882555Y-88610000D01*
X160269187Y-88610000D01*
X160274097Y-88662991D01*
X160329883Y-88859063D01*
X160329886Y-88859069D01*
X160420754Y-89041556D01*
X160543608Y-89204242D01*
X160694260Y-89341578D01*
X160867584Y-89448897D01*
X161057678Y-89522539D01*
X161210000Y-89551013D01*
X161210000Y-88937445D01*
X161294174Y-88960000D01*
X161425826Y-88960000D01*
X161510000Y-88937445D01*
X161510000Y-89551013D01*
X161662321Y-89522539D01*
X161852415Y-89448897D01*
X162025739Y-89341578D01*
X162176391Y-89204242D01*
X162299245Y-89041556D01*
X162390113Y-88859069D01*
X162390116Y-88859063D01*
X162445902Y-88662991D01*
X162450813Y-88610000D01*
X161837445Y-88610000D01*
X161860000Y-88525826D01*
X161860000Y-88394174D01*
X161837445Y-88310000D01*
X162450813Y-88310000D01*
X162450813Y-88309999D01*
X162445902Y-88257008D01*
X162390116Y-88060936D01*
X162390113Y-88060930D01*
X162299245Y-87878443D01*
X162176391Y-87715757D01*
X162025739Y-87578421D01*
X161852415Y-87471102D01*
X161662322Y-87397460D01*
X161510000Y-87368985D01*
X161510000Y-87982554D01*
X161425826Y-87960000D01*
X161294174Y-87960000D01*
X161210000Y-87982554D01*
X161210000Y-87368985D01*
X161057677Y-87397460D01*
X160867584Y-87471102D01*
X160694260Y-87578421D01*
X160543608Y-87715757D01*
X160420754Y-87878443D01*
X160329886Y-88060930D01*
X160329883Y-88060936D01*
X160274097Y-88257008D01*
X160269186Y-88309999D01*
X151797815Y-88309999D01*
X154148052Y-85959762D01*
X154209375Y-85926277D01*
X154235733Y-85923443D01*
X160142063Y-85923443D01*
X160209102Y-85943128D01*
X160254857Y-85995932D01*
X160265534Y-86036002D01*
X160273602Y-86123082D01*
X160329417Y-86319247D01*
X160329422Y-86319260D01*
X160420327Y-86501821D01*
X160543237Y-86664581D01*
X160618957Y-86733608D01*
X160691237Y-86799500D01*
X160693958Y-86801980D01*
X160693960Y-86801982D01*
X160735514Y-86827711D01*
X160867363Y-86909348D01*
X161057544Y-86983024D01*
X161258024Y-87020500D01*
X161258026Y-87020500D01*
X161461974Y-87020500D01*
X161461976Y-87020500D01*
X161662456Y-86983024D01*
X161852637Y-86909348D01*
X162026041Y-86801981D01*
X162160051Y-86679815D01*
X162176762Y-86664581D01*
X162176764Y-86664579D01*
X162299673Y-86501821D01*
X162390582Y-86319250D01*
X162435871Y-86160075D01*
X162473149Y-86100985D01*
X162536458Y-86071427D01*
X162605698Y-86080789D01*
X162642817Y-86106331D01*
X163824338Y-87287852D01*
X163857823Y-87349175D01*
X163858941Y-87355588D01*
X163859254Y-87356758D01*
X163882493Y-87412861D01*
X163919764Y-87502841D01*
X164016018Y-87628282D01*
X164141459Y-87724536D01*
X164287538Y-87785044D01*
X164365919Y-87795363D01*
X164444299Y-87805682D01*
X164444300Y-87805682D01*
X164444301Y-87805682D01*
X164503046Y-87797948D01*
X164601062Y-87785044D01*
X164747141Y-87724536D01*
X164747145Y-87724532D01*
X164754176Y-87720474D01*
X164755182Y-87722216D01*
X164810232Y-87700931D01*
X164820557Y-87700500D01*
X173979624Y-87700500D01*
X174046663Y-87720185D01*
X174067305Y-87736819D01*
X175190986Y-88860500D01*
X175305114Y-88926392D01*
X175432407Y-88960500D01*
X175432408Y-88960500D01*
X175543056Y-88960500D01*
X175610095Y-88980185D01*
X175654055Y-89029226D01*
X175660326Y-89041821D01*
X175783237Y-89204581D01*
X175933958Y-89341980D01*
X175933960Y-89341982D01*
X175974839Y-89367293D01*
X176107363Y-89449348D01*
X176297544Y-89523024D01*
X176498024Y-89560500D01*
X176498026Y-89560500D01*
X176701974Y-89560500D01*
X176701976Y-89560500D01*
X176902456Y-89523024D01*
X177092637Y-89449348D01*
X177266041Y-89341981D01*
X177416764Y-89204579D01*
X177539673Y-89041821D01*
X177630582Y-88859250D01*
X177686397Y-88663083D01*
X177705215Y-88460000D01*
X177699115Y-88394174D01*
X177686397Y-88256917D01*
X177683308Y-88246060D01*
X177630582Y-88060750D01*
X177630159Y-88059901D01*
X177539804Y-87878443D01*
X177539673Y-87878179D01*
X177423649Y-87724538D01*
X177416762Y-87715418D01*
X177266041Y-87578019D01*
X177266039Y-87578017D01*
X177092642Y-87470655D01*
X177092635Y-87470651D01*
X176903705Y-87397460D01*
X176902456Y-87396976D01*
X176701976Y-87359500D01*
X176498024Y-87359500D01*
X176297544Y-87396976D01*
X176297541Y-87396976D01*
X176297541Y-87396977D01*
X176107364Y-87470651D01*
X176107357Y-87470655D01*
X175933960Y-87578017D01*
X175933958Y-87578019D01*
X175783237Y-87715418D01*
X175730697Y-87784994D01*
X175674588Y-87826630D01*
X175604876Y-87831321D01*
X175544062Y-87797948D01*
X174545616Y-86799502D01*
X174545614Y-86799500D01*
X174488550Y-86766554D01*
X174431487Y-86733608D01*
X174367839Y-86716554D01*
X174304192Y-86699500D01*
X174304191Y-86699500D01*
X164820557Y-86699500D01*
X164753518Y-86679815D01*
X164748200Y-86676075D01*
X164747136Y-86675461D01*
X164601061Y-86614955D01*
X164593211Y-86612852D01*
X164593730Y-86610911D01*
X164539743Y-86587023D01*
X164532152Y-86580038D01*
X163872113Y-85919999D01*
X175494785Y-85919999D01*
X175494785Y-85920000D01*
X175513602Y-86123082D01*
X175569417Y-86319247D01*
X175569422Y-86319260D01*
X175660327Y-86501821D01*
X175783237Y-86664581D01*
X175858957Y-86733608D01*
X175931237Y-86799500D01*
X175933958Y-86801980D01*
X175933960Y-86801982D01*
X175975514Y-86827711D01*
X176107363Y-86909348D01*
X176297544Y-86983024D01*
X176498024Y-87020500D01*
X176498026Y-87020500D01*
X176701974Y-87020500D01*
X176701976Y-87020500D01*
X176902456Y-86983024D01*
X177092637Y-86909348D01*
X177266041Y-86801981D01*
X177400051Y-86679815D01*
X177416762Y-86664581D01*
X177416764Y-86664579D01*
X177539673Y-86501821D01*
X177630582Y-86319250D01*
X177686397Y-86123083D01*
X177705215Y-85920000D01*
X177704806Y-85915591D01*
X177686397Y-85716917D01*
X177631487Y-85523931D01*
X177630582Y-85520750D01*
X177539673Y-85338179D01*
X177424046Y-85185064D01*
X177416762Y-85175418D01*
X177266041Y-85038019D01*
X177266039Y-85038017D01*
X177092642Y-84930655D01*
X177092635Y-84930651D01*
X176977696Y-84886124D01*
X176902456Y-84856976D01*
X176701976Y-84819500D01*
X176498024Y-84819500D01*
X176297544Y-84856976D01*
X176297541Y-84856976D01*
X176297541Y-84856977D01*
X176107364Y-84930651D01*
X176107357Y-84930655D01*
X175933960Y-85038017D01*
X175933958Y-85038019D01*
X175783237Y-85175418D01*
X175660327Y-85338178D01*
X175569422Y-85520739D01*
X175569417Y-85520752D01*
X175513602Y-85716917D01*
X175494785Y-85919999D01*
X163872113Y-85919999D01*
X162271616Y-84319502D01*
X162271614Y-84319500D01*
X162271611Y-84319498D01*
X162271607Y-84319495D01*
X162224560Y-84292332D01*
X162176345Y-84241765D01*
X162163123Y-84173157D01*
X162187605Y-84110222D01*
X162299673Y-83961821D01*
X162390582Y-83779250D01*
X162446397Y-83583083D01*
X162465215Y-83380000D01*
X162459115Y-83314174D01*
X162451315Y-83229999D01*
X175509186Y-83229999D01*
X175509187Y-83230000D01*
X176122555Y-83230000D01*
X176100000Y-83314174D01*
X176100000Y-83445826D01*
X176122555Y-83530000D01*
X175509187Y-83530000D01*
X175514097Y-83582991D01*
X175569883Y-83779063D01*
X175569886Y-83779069D01*
X175660754Y-83961556D01*
X175783608Y-84124242D01*
X175934260Y-84261578D01*
X176107584Y-84368897D01*
X176297678Y-84442539D01*
X176450000Y-84471013D01*
X176450000Y-83857445D01*
X176534174Y-83880000D01*
X176665826Y-83880000D01*
X176750000Y-83857445D01*
X176750000Y-84471013D01*
X176902321Y-84442539D01*
X177092415Y-84368897D01*
X177265739Y-84261578D01*
X177416391Y-84124242D01*
X177539245Y-83961556D01*
X177630113Y-83779069D01*
X177630116Y-83779063D01*
X177685902Y-83582991D01*
X177690813Y-83530000D01*
X177077445Y-83530000D01*
X177100000Y-83445826D01*
X177100000Y-83314174D01*
X177077445Y-83230000D01*
X177690813Y-83230000D01*
X177690813Y-83229999D01*
X177685902Y-83177008D01*
X177630116Y-82980936D01*
X177630113Y-82980930D01*
X177539245Y-82798443D01*
X177416391Y-82635757D01*
X177265739Y-82498421D01*
X177092415Y-82391102D01*
X176902322Y-82317460D01*
X176750000Y-82288985D01*
X176750000Y-82902554D01*
X176665826Y-82880000D01*
X176534174Y-82880000D01*
X176450000Y-82902554D01*
X176450000Y-82288985D01*
X176297677Y-82317460D01*
X176107584Y-82391102D01*
X175934260Y-82498421D01*
X175783608Y-82635757D01*
X175660754Y-82798443D01*
X175569886Y-82980930D01*
X175569883Y-82980936D01*
X175514097Y-83177008D01*
X175509186Y-83229999D01*
X162451315Y-83229999D01*
X162446397Y-83176917D01*
X162390582Y-82980750D01*
X162390159Y-82979901D01*
X162340415Y-82880000D01*
X162299673Y-82798179D01*
X162184046Y-82645064D01*
X162176762Y-82635418D01*
X162026041Y-82498019D01*
X162026039Y-82498017D01*
X161852642Y-82390655D01*
X161852635Y-82390651D01*
X161663705Y-82317460D01*
X161662456Y-82316976D01*
X161461976Y-82279500D01*
X161258024Y-82279500D01*
X161057544Y-82316976D01*
X161057541Y-82316976D01*
X161057541Y-82316977D01*
X160867364Y-82390651D01*
X160867357Y-82390655D01*
X160693960Y-82498017D01*
X160693958Y-82498019D01*
X160543237Y-82635418D01*
X160420327Y-82798178D01*
X160329422Y-82980739D01*
X160329417Y-82980752D01*
X160273602Y-83176917D01*
X160254785Y-83379999D01*
X160254785Y-83380000D01*
X160273602Y-83583082D01*
X160329417Y-83779247D01*
X160329422Y-83779260D01*
X160420327Y-83961821D01*
X160543235Y-84124578D01*
X160555714Y-84135954D01*
X160591995Y-84195666D01*
X160590234Y-84265513D01*
X160559856Y-84315272D01*
X159989005Y-84886124D01*
X159927682Y-84919609D01*
X159901324Y-84922443D01*
X158607477Y-84922443D01*
X158540438Y-84902758D01*
X158494683Y-84849954D01*
X158484739Y-84780796D01*
X158509101Y-84722957D01*
X158524535Y-84702842D01*
X158524534Y-84702842D01*
X158524536Y-84702841D01*
X158585044Y-84556762D01*
X158605682Y-84400000D01*
X158585044Y-84243238D01*
X158524536Y-84097159D01*
X158428282Y-83971718D01*
X158302841Y-83875464D01*
X158156762Y-83814956D01*
X158156760Y-83814955D01*
X158000001Y-83794318D01*
X157999999Y-83794318D01*
X157843239Y-83814955D01*
X157843237Y-83814956D01*
X157697160Y-83875463D01*
X157673890Y-83893318D01*
X157571718Y-83971718D01*
X157571716Y-83971720D01*
X157568907Y-83973876D01*
X157503737Y-83999070D01*
X157493420Y-83999500D01*
X143287273Y-83999500D01*
X143185410Y-84026793D01*
X143094087Y-84079520D01*
X143094084Y-84079522D01*
X142269876Y-84903729D01*
X142208553Y-84937214D01*
X142146201Y-84934709D01*
X142040873Y-84902758D01*
X142008284Y-84892872D01*
X141800000Y-84872359D01*
X141591715Y-84892872D01*
X141391428Y-84953629D01*
X141206846Y-85052291D01*
X141045063Y-85185063D01*
X140912291Y-85346846D01*
X140813629Y-85531428D01*
X140752872Y-85731715D01*
X140732359Y-85940000D01*
X139500500Y-85940000D01*
X139500500Y-83400000D01*
X140732359Y-83400000D01*
X140752872Y-83608284D01*
X140752873Y-83608286D01*
X140813628Y-83808569D01*
X140900833Y-83971718D01*
X140912291Y-83993153D01*
X141045063Y-84154936D01*
X141206846Y-84287708D01*
X141206850Y-84287711D01*
X141391431Y-84386372D01*
X141591714Y-84447127D01*
X141800000Y-84467641D01*
X142008286Y-84447127D01*
X142208569Y-84386372D01*
X142393150Y-84287711D01*
X142554936Y-84154936D01*
X142687711Y-83993150D01*
X142786372Y-83808569D01*
X142847127Y-83608286D01*
X142867641Y-83400000D01*
X142847127Y-83191714D01*
X142786372Y-82991431D01*
X142687711Y-82806850D01*
X142680594Y-82798178D01*
X142554936Y-82645063D01*
X142393153Y-82512291D01*
X142393151Y-82512290D01*
X142393150Y-82512289D01*
X142208569Y-82413628D01*
X142108427Y-82383250D01*
X142008284Y-82352872D01*
X141800000Y-82332359D01*
X141591715Y-82352872D01*
X141391428Y-82413629D01*
X141206846Y-82512291D01*
X141045063Y-82645063D01*
X140912291Y-82806846D01*
X140813629Y-82991428D01*
X140752872Y-83191715D01*
X140732359Y-83400000D01*
X139500500Y-83400000D01*
X139500500Y-80860000D01*
X140732359Y-80860000D01*
X140752872Y-81068284D01*
X140752873Y-81068286D01*
X140813628Y-81268569D01*
X140895543Y-81421821D01*
X140912291Y-81453153D01*
X141045063Y-81614936D01*
X141175498Y-81721981D01*
X141206850Y-81747711D01*
X141391431Y-81846372D01*
X141591714Y-81907127D01*
X141800000Y-81927641D01*
X142008286Y-81907127D01*
X142208569Y-81846372D01*
X142393150Y-81747711D01*
X142554936Y-81614936D01*
X142687711Y-81453150D01*
X142786372Y-81268569D01*
X142847127Y-81068286D01*
X142867641Y-80860000D01*
X142847127Y-80651714D01*
X142786372Y-80451431D01*
X142687711Y-80266850D01*
X142680594Y-80258178D01*
X142554936Y-80105063D01*
X142420984Y-79995131D01*
X160259500Y-79995131D01*
X160259500Y-81684856D01*
X160259502Y-81684882D01*
X160262413Y-81709987D01*
X160262415Y-81709991D01*
X160307793Y-81812764D01*
X160307794Y-81812765D01*
X160387235Y-81892206D01*
X160490009Y-81937585D01*
X160515135Y-81940500D01*
X162204864Y-81940499D01*
X162204879Y-81940497D01*
X162204882Y-81940497D01*
X162229987Y-81937586D01*
X162229988Y-81937585D01*
X162229991Y-81937585D01*
X162332765Y-81892206D01*
X162412206Y-81812765D01*
X162457585Y-81709991D01*
X162460500Y-81684865D01*
X162460499Y-80839999D01*
X175494785Y-80839999D01*
X175494785Y-80840000D01*
X175513602Y-81043082D01*
X175569417Y-81239247D01*
X175569422Y-81239260D01*
X175660327Y-81421821D01*
X175783237Y-81584581D01*
X175933958Y-81721980D01*
X175933960Y-81721982D01*
X175975514Y-81747711D01*
X176107363Y-81829348D01*
X176297544Y-81903024D01*
X176498024Y-81940500D01*
X176498026Y-81940500D01*
X176701974Y-81940500D01*
X176701976Y-81940500D01*
X176902456Y-81903024D01*
X177092637Y-81829348D01*
X177266041Y-81721981D01*
X177416764Y-81584579D01*
X177539673Y-81421821D01*
X177630582Y-81239250D01*
X177686397Y-81043083D01*
X177705215Y-80840000D01*
X177686397Y-80636917D01*
X177630582Y-80440750D01*
X177539673Y-80258179D01*
X177424046Y-80105064D01*
X177416762Y-80095418D01*
X177266041Y-79958019D01*
X177266039Y-79958017D01*
X177092642Y-79850655D01*
X177092635Y-79850651D01*
X176942164Y-79792359D01*
X176902456Y-79776976D01*
X176701976Y-79739500D01*
X176498024Y-79739500D01*
X176297544Y-79776976D01*
X176297541Y-79776976D01*
X176297541Y-79776977D01*
X176107364Y-79850651D01*
X176107357Y-79850655D01*
X175933960Y-79958017D01*
X175933958Y-79958019D01*
X175783237Y-80095418D01*
X175660327Y-80258178D01*
X175569422Y-80440739D01*
X175569417Y-80440752D01*
X175513602Y-80636917D01*
X175494785Y-80839999D01*
X162460499Y-80839999D01*
X162460499Y-79995136D01*
X162457850Y-79972291D01*
X162457586Y-79970012D01*
X162457585Y-79970010D01*
X162457585Y-79970009D01*
X162412206Y-79867235D01*
X162332765Y-79787794D01*
X162308267Y-79776977D01*
X162229992Y-79742415D01*
X162204865Y-79739500D01*
X160515143Y-79739500D01*
X160515117Y-79739502D01*
X160490012Y-79742413D01*
X160490008Y-79742415D01*
X160387235Y-79787793D01*
X160307794Y-79867234D01*
X160262415Y-79970006D01*
X160262415Y-79970008D01*
X160259500Y-79995131D01*
X142420984Y-79995131D01*
X142393153Y-79972291D01*
X142393151Y-79972290D01*
X142393150Y-79972289D01*
X142208569Y-79873628D01*
X142108427Y-79843250D01*
X142008284Y-79812872D01*
X141800000Y-79792359D01*
X141591715Y-79812872D01*
X141391428Y-79873629D01*
X141206846Y-79972291D01*
X141045063Y-80105063D01*
X140912291Y-80266846D01*
X140813629Y-80451428D01*
X140752872Y-80651715D01*
X140732359Y-80860000D01*
X139500500Y-80860000D01*
X139500500Y-78320000D01*
X140732359Y-78320000D01*
X140752872Y-78528284D01*
X140813629Y-78728571D01*
X140912291Y-78913153D01*
X141045063Y-79074936D01*
X141206846Y-79207708D01*
X141206850Y-79207711D01*
X141391431Y-79306372D01*
X141591714Y-79367127D01*
X141800000Y-79387641D01*
X142008286Y-79367127D01*
X142208569Y-79306372D01*
X142393150Y-79207711D01*
X142554936Y-79074936D01*
X142687711Y-78913150D01*
X142786372Y-78728569D01*
X142847127Y-78528286D01*
X142867641Y-78320000D01*
X142847127Y-78111714D01*
X142786372Y-77911431D01*
X142687711Y-77726850D01*
X142687708Y-77726846D01*
X142554936Y-77565063D01*
X142393153Y-77432291D01*
X142393151Y-77432290D01*
X142393150Y-77432289D01*
X142208569Y-77333628D01*
X142108427Y-77303250D01*
X142008284Y-77272872D01*
X141800000Y-77252359D01*
X141591715Y-77272872D01*
X141391428Y-77333629D01*
X141206846Y-77432291D01*
X141045063Y-77565063D01*
X140912291Y-77726846D01*
X140813629Y-77911428D01*
X140752872Y-78111715D01*
X140732359Y-78320000D01*
X139500500Y-78320000D01*
X139500500Y-75780000D01*
X140732359Y-75780000D01*
X140752872Y-75988284D01*
X140813629Y-76188571D01*
X140912291Y-76373153D01*
X141045063Y-76534936D01*
X141206846Y-76667708D01*
X141206850Y-76667711D01*
X141391431Y-76766372D01*
X141591714Y-76827127D01*
X141800000Y-76847641D01*
X142008286Y-76827127D01*
X142208569Y-76766372D01*
X142393150Y-76667711D01*
X142554936Y-76534936D01*
X142687711Y-76373150D01*
X142786372Y-76188569D01*
X142847127Y-75988286D01*
X142867641Y-75780000D01*
X142847127Y-75571714D01*
X142786372Y-75371431D01*
X142687711Y-75186850D01*
X142687708Y-75186846D01*
X142554936Y-75025063D01*
X142393153Y-74892291D01*
X142393151Y-74892290D01*
X142393150Y-74892289D01*
X142208569Y-74793628D01*
X142108427Y-74763250D01*
X142008284Y-74732872D01*
X141800000Y-74712359D01*
X141591715Y-74732872D01*
X141391428Y-74793629D01*
X141206846Y-74892291D01*
X141045063Y-75025063D01*
X140912291Y-75186846D01*
X140813629Y-75371428D01*
X140752872Y-75571715D01*
X140732359Y-75780000D01*
X139500500Y-75780000D01*
X139500500Y-72433131D01*
X140737500Y-72433131D01*
X140737500Y-74046856D01*
X140737502Y-74046882D01*
X140740413Y-74071987D01*
X140740415Y-74071991D01*
X140785793Y-74174764D01*
X140785794Y-74174765D01*
X140865235Y-74254206D01*
X140968009Y-74299585D01*
X140993135Y-74302500D01*
X142606864Y-74302499D01*
X142606879Y-74302497D01*
X142606882Y-74302497D01*
X142631987Y-74299586D01*
X142631988Y-74299585D01*
X142631991Y-74299585D01*
X142734765Y-74254206D01*
X142814206Y-74174765D01*
X142859585Y-74071991D01*
X142862500Y-74046865D01*
X142862499Y-72433136D01*
X142862497Y-72433117D01*
X142859586Y-72408012D01*
X142859585Y-72408010D01*
X142859585Y-72408009D01*
X142814206Y-72305235D01*
X142734765Y-72225794D01*
X142734763Y-72225793D01*
X142631992Y-72180415D01*
X142606865Y-72177500D01*
X140993143Y-72177500D01*
X140993117Y-72177502D01*
X140968012Y-72180413D01*
X140968008Y-72180415D01*
X140865235Y-72225793D01*
X140785794Y-72305234D01*
X140740415Y-72408006D01*
X140740415Y-72408008D01*
X140737500Y-72433131D01*
X139500500Y-72433131D01*
X139500500Y-71905131D01*
X164019500Y-71905131D01*
X164019500Y-73694856D01*
X164019502Y-73694882D01*
X164022413Y-73719987D01*
X164022415Y-73719991D01*
X164067793Y-73822764D01*
X164067794Y-73822765D01*
X164147235Y-73902206D01*
X164250009Y-73947585D01*
X164275135Y-73950500D01*
X166064864Y-73950499D01*
X166064879Y-73950497D01*
X166064882Y-73950497D01*
X166089987Y-73947586D01*
X166089988Y-73947585D01*
X166089991Y-73947585D01*
X166192765Y-73902206D01*
X166272206Y-73822765D01*
X166317585Y-73719991D01*
X166320500Y-73694865D01*
X166320499Y-72950625D01*
X166340183Y-72883588D01*
X166392987Y-72837833D01*
X166462146Y-72827889D01*
X166525702Y-72856914D01*
X166563476Y-72915692D01*
X166567970Y-72939185D01*
X166574737Y-73012216D01*
X166574738Y-73012219D01*
X166633058Y-73217196D01*
X166633066Y-73217216D01*
X166728059Y-73407989D01*
X166856500Y-73578071D01*
X167014000Y-73721651D01*
X167014002Y-73721653D01*
X167195201Y-73833846D01*
X167195207Y-73833849D01*
X167393936Y-73910836D01*
X167560000Y-73941879D01*
X167560000Y-73277445D01*
X167644174Y-73300000D01*
X167775826Y-73300000D01*
X167860000Y-73277445D01*
X167860000Y-73941879D01*
X168026063Y-73910836D01*
X168224792Y-73833849D01*
X168224798Y-73833846D01*
X168405997Y-73721653D01*
X168405999Y-73721651D01*
X168563499Y-73578071D01*
X168691940Y-73407989D01*
X168786933Y-73217216D01*
X168786941Y-73217196D01*
X168845261Y-73012218D01*
X168851027Y-72950000D01*
X168187445Y-72950000D01*
X168210000Y-72865826D01*
X168210000Y-72800000D01*
X169094571Y-72800000D01*
X169114244Y-73012310D01*
X169167675Y-73200099D01*
X169172596Y-73217392D01*
X169172596Y-73217394D01*
X169267632Y-73408253D01*
X169267634Y-73408255D01*
X169396128Y-73578407D01*
X169553698Y-73722052D01*
X169734981Y-73834298D01*
X169933802Y-73911321D01*
X170143390Y-73950500D01*
X170143392Y-73950500D01*
X170356608Y-73950500D01*
X170356610Y-73950500D01*
X170566198Y-73911321D01*
X170765019Y-73834298D01*
X170946302Y-73722052D01*
X171103872Y-73578407D01*
X171232366Y-73408255D01*
X171286270Y-73300000D01*
X171327403Y-73217394D01*
X171327403Y-73217393D01*
X171327405Y-73217389D01*
X171385756Y-73012310D01*
X171396529Y-72896047D01*
X171422315Y-72831111D01*
X171464622Y-72800804D01*
X171573130Y-72800804D01*
X171609503Y-72821668D01*
X171641693Y-72883681D01*
X171643470Y-72896047D01*
X171654244Y-73012310D01*
X171707675Y-73200099D01*
X171712596Y-73217392D01*
X171712596Y-73217394D01*
X171807632Y-73408253D01*
X171807634Y-73408255D01*
X171936128Y-73578407D01*
X172093698Y-73722052D01*
X172274981Y-73834298D01*
X172473802Y-73911321D01*
X172683390Y-73950500D01*
X172683392Y-73950500D01*
X172896608Y-73950500D01*
X172896610Y-73950500D01*
X173106198Y-73911321D01*
X173305019Y-73834298D01*
X173486302Y-73722052D01*
X173643872Y-73578407D01*
X173772366Y-73408255D01*
X173826270Y-73300000D01*
X173867403Y-73217394D01*
X173867403Y-73217393D01*
X173867405Y-73217389D01*
X173925756Y-73012310D01*
X173945429Y-72800000D01*
X173925756Y-72587690D01*
X173867405Y-72382611D01*
X173867403Y-72382606D01*
X173867403Y-72382605D01*
X173772367Y-72191746D01*
X173643872Y-72021593D01*
X173516133Y-71905143D01*
X173486302Y-71877948D01*
X173305019Y-71765702D01*
X173305017Y-71765701D01*
X173205608Y-71727190D01*
X173106198Y-71688679D01*
X172896610Y-71649500D01*
X172683390Y-71649500D01*
X172473802Y-71688679D01*
X172473799Y-71688679D01*
X172473799Y-71688680D01*
X172274982Y-71765701D01*
X172274980Y-71765702D01*
X172093699Y-71877947D01*
X171936127Y-72021593D01*
X171807632Y-72191746D01*
X171712596Y-72382605D01*
X171712596Y-72382607D01*
X171654244Y-72587689D01*
X171643471Y-72703951D01*
X171617685Y-72768888D01*
X171573130Y-72800804D01*
X171464622Y-72800804D01*
X171466869Y-72799194D01*
X171430497Y-72778331D01*
X171398307Y-72716318D01*
X171396529Y-72703951D01*
X171392532Y-72660816D01*
X171385756Y-72587690D01*
X171327405Y-72382611D01*
X171327403Y-72382606D01*
X171327403Y-72382605D01*
X171232367Y-72191746D01*
X171103872Y-72021593D01*
X170976133Y-71905143D01*
X170946302Y-71877948D01*
X170765019Y-71765702D01*
X170765017Y-71765701D01*
X170665608Y-71727190D01*
X170566198Y-71688679D01*
X170356610Y-71649500D01*
X170143390Y-71649500D01*
X169933802Y-71688679D01*
X169933799Y-71688679D01*
X169933799Y-71688680D01*
X169734982Y-71765701D01*
X169734980Y-71765702D01*
X169553699Y-71877947D01*
X169396127Y-72021593D01*
X169267632Y-72191746D01*
X169172596Y-72382605D01*
X169172596Y-72382607D01*
X169114244Y-72587689D01*
X169097355Y-72769960D01*
X169094571Y-72800000D01*
X168210000Y-72800000D01*
X168210000Y-72734174D01*
X168187445Y-72650000D01*
X168851027Y-72650000D01*
X168851027Y-72649999D01*
X168845261Y-72587781D01*
X168786941Y-72382803D01*
X168786933Y-72382783D01*
X168691940Y-72192010D01*
X168563499Y-72021928D01*
X168405999Y-71878348D01*
X168405997Y-71878346D01*
X168224798Y-71766153D01*
X168224789Y-71766149D01*
X168026060Y-71689162D01*
X168026061Y-71689162D01*
X167860000Y-71658119D01*
X167860000Y-72322554D01*
X167775826Y-72300000D01*
X167644174Y-72300000D01*
X167560000Y-72322554D01*
X167560000Y-71658119D01*
X167393939Y-71689162D01*
X167195210Y-71766149D01*
X167195201Y-71766153D01*
X167014002Y-71878346D01*
X167014000Y-71878348D01*
X166856500Y-72021928D01*
X166728059Y-72192010D01*
X166633066Y-72382783D01*
X166633058Y-72382803D01*
X166574738Y-72587780D01*
X166574738Y-72587783D01*
X166567970Y-72660816D01*
X166542183Y-72725753D01*
X166485383Y-72766440D01*
X166415602Y-72769960D01*
X166354995Y-72735194D01*
X166322806Y-72673181D01*
X166320499Y-72649374D01*
X166320499Y-71905143D01*
X166320499Y-71905136D01*
X166320497Y-71905117D01*
X166317586Y-71880012D01*
X166317585Y-71880010D01*
X166317585Y-71880009D01*
X166272206Y-71777235D01*
X166192765Y-71697794D01*
X166192763Y-71697793D01*
X166089992Y-71652415D01*
X166064865Y-71649500D01*
X164275143Y-71649500D01*
X164275117Y-71649502D01*
X164250012Y-71652413D01*
X164250008Y-71652415D01*
X164147235Y-71697793D01*
X164067794Y-71777234D01*
X164022415Y-71880006D01*
X164022415Y-71880008D01*
X164019500Y-71905131D01*
X139500500Y-71905131D01*
X139500500Y-70624500D01*
X139520185Y-70557461D01*
X139572989Y-70511706D01*
X139624500Y-70500500D01*
X198375500Y-70500500D01*
X198442539Y-70520185D01*
G37*
%TD.AperFunction*%
%TD*%
D24*
X158000000Y-84400000D03*
X152129300Y-99890000D03*
X164444300Y-87200000D03*
X146200000Y-94600000D03*
D25*
X141800000Y-91020000D03*
X141800000Y-88480000D03*
X141800000Y-85940000D03*
X141800000Y-83400000D03*
X141800000Y-80860000D03*
X141800000Y-78320000D03*
X141800000Y-75780000D03*
X141800000Y-73240000D03*
X165170000Y-72800000D03*
X167710000Y-72800000D03*
X170250000Y-72800000D03*
X172790000Y-72800000D03*
X191000000Y-94027400D03*
X191000000Y-96027400D03*
X185060000Y-114800000D03*
X187600000Y-114800000D03*
X152800000Y-114800000D03*
X150260000Y-114800000D03*
X142200000Y-101520000D03*
X142200000Y-104060000D03*
X142200000Y-106600000D03*
X196200000Y-92260000D03*
X196200000Y-94800000D03*
X196200000Y-97340000D03*
X195800000Y-114800000D03*
X193260000Y-114800000D03*
X142260000Y-114800000D03*
X144800000Y-114800000D03*
X161360000Y-80840000D03*
X161360000Y-83380000D03*
X161360000Y-85920000D03*
X161360000Y-88460000D03*
X161360000Y-91000000D03*
X161360000Y-93540000D03*
X161360000Y-96080000D03*
X161360000Y-98620000D03*
X161360000Y-101160000D03*
X161360000Y-103700000D03*
X161360000Y-106240000D03*
X161360000Y-108780000D03*
X161360000Y-111320000D03*
X161360000Y-113860000D03*
X161360000Y-116400000D03*
X176600000Y-116400000D03*
X176600000Y-113860000D03*
X176600000Y-111320000D03*
X176600000Y-108780000D03*
X176600000Y-106240000D03*
X176600000Y-103700000D03*
X176600000Y-101160000D03*
X176600000Y-98620000D03*
X176600000Y-96080000D03*
X176600000Y-93540000D03*
X176600000Y-91000000D03*
X176600000Y-88460000D03*
X176600000Y-85920000D03*
X176600000Y-83380000D03*
X176600000Y-80840000D03*
M02*
