%TF.GenerationSoftware,KiCad,Pcbnew,8.0.6*%
%TF.CreationDate,2025-04-16T21:55:28+02:00*%
%TF.ProjectId,Autonomous_KiCAD8,4175746f-6e6f-46d6-9f75-735f4b694341,rev?*%
%TF.SameCoordinates,Original*%
%TF.FileFunction,Soldermask,Top*%
%TF.FilePolarity,Negative*%
%FSLAX46Y46*%
G04 Gerber Fmt 4.6, Leading zero omitted, Abs format (unit mm)*
G04 Created by KiCad (PCBNEW 8.0.6) date 2025-04-16 21:55:28*
%MOMM*%
%LPD*%
G01*
G04 APERTURE LIST*
%ADD10C,1.524000*%
%ADD11R,1.524000X1.524000*%
%ADD12R,1.700000X1.700000*%
%ADD13O,1.700000X1.700000*%
%ADD14R,1.200000X1.200000*%
%ADD15C,1.200000*%
%ADD16C,1.600000*%
%ADD17O,1.600000X1.600000*%
%ADD18R,1.800000X1.800000*%
%ADD19C,1.800000*%
%ADD20R,1.600000X1.600000*%
G04 APERTURE END LIST*
D10*
%TO.C,U1*%
X141800000Y-91020000D03*
X141800000Y-88480000D03*
X141800000Y-85940000D03*
X141800000Y-83400000D03*
X141800000Y-80860000D03*
X141800000Y-78320000D03*
X141800000Y-75780000D03*
D11*
X141800000Y-73240000D03*
%TD*%
D12*
%TO.C,J4*%
X165170000Y-72800000D03*
D13*
X167710000Y-72800000D03*
X170250000Y-72800000D03*
X172790000Y-72800000D03*
%TD*%
D14*
%TO.C,C1*%
X191000000Y-94027400D03*
D15*
X191000000Y-96027400D03*
%TD*%
D16*
%TO.C,R2*%
X185060000Y-114800000D03*
D17*
X187600000Y-114800000D03*
%TD*%
D16*
%TO.C,R1*%
X152800000Y-114800000D03*
D17*
X150260000Y-114800000D03*
%TD*%
D12*
%TO.C,J3*%
X142200000Y-101520000D03*
D13*
X142200000Y-104060000D03*
X142200000Y-106600000D03*
%TD*%
D12*
%TO.C,J1*%
X196200000Y-92260000D03*
D13*
X196200000Y-94800000D03*
X196200000Y-97340000D03*
%TD*%
D18*
%TO.C,D2*%
X195800000Y-114800000D03*
D19*
X193260000Y-114800000D03*
%TD*%
D18*
%TO.C,D1*%
X142260000Y-114800000D03*
D19*
X144800000Y-114800000D03*
%TD*%
D20*
%TO.C,A1*%
X161360000Y-80840000D03*
D17*
X161360000Y-83380000D03*
X161360000Y-85920000D03*
X161360000Y-88460000D03*
X161360000Y-91000000D03*
X161360000Y-93540000D03*
X161360000Y-96080000D03*
X161360000Y-98620000D03*
X161360000Y-101160000D03*
X161360000Y-103700000D03*
X161360000Y-106240000D03*
X161360000Y-108780000D03*
X161360000Y-111320000D03*
X161360000Y-113860000D03*
X161360000Y-116400000D03*
X176600000Y-116400000D03*
X176600000Y-113860000D03*
X176600000Y-111320000D03*
X176600000Y-108780000D03*
X176600000Y-106240000D03*
X176600000Y-103700000D03*
X176600000Y-101160000D03*
X176600000Y-98620000D03*
X176600000Y-96080000D03*
X176600000Y-93540000D03*
X176600000Y-91000000D03*
X176600000Y-88460000D03*
X176600000Y-85920000D03*
X176600000Y-83380000D03*
X176600000Y-80840000D03*
%TD*%
M02*
