%TF.GenerationSoftware,KiCad,Pcbnew,8.0.6*%
%TF.CreationDate,2025-04-16T21:55:28+02:00*%
%TF.ProjectId,Autonomous_KiCAD8,4175746f-6e6f-46d6-9f75-735f4b694341,rev?*%
%TF.SameCoordinates,Original*%
%TF.FileFunction,Copper,L2,Bot*%
%TF.FilePolarity,Positive*%
%FSLAX46Y46*%
G04 Gerber Fmt 4.6, Leading zero omitted, Abs format (unit mm)*
G04 Created by KiCad (PCBNEW 8.0.6) date 2025-04-16 21:55:28*
%MOMM*%
%LPD*%
G01*
G04 APERTURE LIST*
%TA.AperFunction,ComponentPad*%
%ADD10C,1.524000*%
%TD*%
%TA.AperFunction,ComponentPad*%
%ADD11R,1.524000X1.524000*%
%TD*%
%TA.AperFunction,ComponentPad*%
%ADD12R,1.700000X1.700000*%
%TD*%
%TA.AperFunction,ComponentPad*%
%ADD13O,1.700000X1.700000*%
%TD*%
%TA.AperFunction,ComponentPad*%
%ADD14R,1.200000X1.200000*%
%TD*%
%TA.AperFunction,ComponentPad*%
%ADD15C,1.200000*%
%TD*%
%TA.AperFunction,ComponentPad*%
%ADD16C,1.600000*%
%TD*%
%TA.AperFunction,ComponentPad*%
%ADD17O,1.600000X1.600000*%
%TD*%
%TA.AperFunction,ComponentPad*%
%ADD18R,1.800000X1.800000*%
%TD*%
%TA.AperFunction,ComponentPad*%
%ADD19C,1.800000*%
%TD*%
%TA.AperFunction,ComponentPad*%
%ADD20R,1.600000X1.600000*%
%TD*%
%TA.AperFunction,ViaPad*%
%ADD21C,0.600000*%
%TD*%
%TA.AperFunction,Conductor*%
%ADD22C,0.200000*%
%TD*%
%TA.AperFunction,Conductor*%
%ADD23C,0.400000*%
%TD*%
%ADD24C,0.300000*%
%ADD25C,0.350000*%
G04 APERTURE END LIST*
D10*
%TO.P,U1,8,VCC*%
%TO.N,VCC*%
X141800000Y-91020000D03*
%TO.P,U1,7,GND*%
%TO.N,GND*%
X141800000Y-88480000D03*
%TO.P,U1,6,SCL*%
%TO.N,/SCL*%
X141800000Y-85940000D03*
%TO.P,U1,5,SDA*%
%TO.N,/SDA*%
X141800000Y-83400000D03*
%TO.P,U1,4,XDA*%
%TO.N,unconnected-(U1-XDA-Pad4)*%
X141800000Y-80860000D03*
%TO.P,U1,3,XCL*%
%TO.N,unconnected-(U1-XCL-Pad3)*%
X141800000Y-78320000D03*
%TO.P,U1,2,AD0*%
%TO.N,unconnected-(U1-AD0-Pad2)*%
X141800000Y-75780000D03*
D11*
%TO.P,U1,1,INT*%
%TO.N,unconnected-(U1-INT-Pad1)*%
X141800000Y-73240000D03*
%TD*%
D12*
%TO.P,J4,1,Pin_1*%
%TO.N,VCC*%
X165170000Y-72800000D03*
D13*
%TO.P,J4,2,Pin_2*%
%TO.N,GND*%
X167710000Y-72800000D03*
%TO.P,J4,3,Pin_3*%
%TO.N,/D0*%
X170250000Y-72800000D03*
%TO.P,J4,4,Pin_4*%
%TO.N,/A0*%
X172790000Y-72800000D03*
%TD*%
D14*
%TO.P,C1,1*%
%TO.N,+5V*%
X191000000Y-94027400D03*
D15*
%TO.P,C1,2*%
%TO.N,GND*%
X191000000Y-96027400D03*
%TD*%
D16*
%TO.P,R2,1*%
%TO.N,VCC*%
X185060000Y-114800000D03*
D17*
%TO.P,R2,2*%
%TO.N,Net-(D2-A)*%
X187600000Y-114800000D03*
%TD*%
D16*
%TO.P,R1,1*%
%TO.N,+5V*%
X152800000Y-114800000D03*
D17*
%TO.P,R1,2*%
%TO.N,Net-(D1-A)*%
X150260000Y-114800000D03*
%TD*%
D12*
%TO.P,J3,1,Pin_1*%
%TO.N,+5V*%
X142200000Y-101520000D03*
D13*
%TO.P,J3,2,Pin_2*%
%TO.N,/ESC*%
X142200000Y-104060000D03*
%TO.P,J3,3,Pin_3*%
%TO.N,GND*%
X142200000Y-106600000D03*
%TD*%
D12*
%TO.P,J1,1,Pin_1*%
%TO.N,+5V*%
X196200000Y-92260000D03*
D13*
%TO.P,J1,2,Pin_2*%
%TO.N,/SERVO*%
X196200000Y-94800000D03*
%TO.P,J1,3,Pin_3*%
%TO.N,GND*%
X196200000Y-97340000D03*
%TD*%
D18*
%TO.P,D2,1,K*%
%TO.N,GND*%
X195800000Y-114800000D03*
D19*
%TO.P,D2,2,A*%
%TO.N,Net-(D2-A)*%
X193260000Y-114800000D03*
%TD*%
D18*
%TO.P,D1,1,K*%
%TO.N,GND*%
X142260000Y-114800000D03*
D19*
%TO.P,D1,2,A*%
%TO.N,Net-(D1-A)*%
X144800000Y-114800000D03*
%TD*%
D20*
%TO.P,A1,1,D1/TX*%
%TO.N,unconnected-(A1-D1{slash}TX-Pad1)*%
X161360000Y-80840000D03*
D17*
%TO.P,A1,2,D0/RX*%
%TO.N,unconnected-(A1-D0{slash}RX-Pad2)*%
X161360000Y-83380000D03*
%TO.P,A1,3,~{RESET}*%
%TO.N,unconnected-(A1-~{RESET}-Pad3)*%
X161360000Y-85920000D03*
%TO.P,A1,4,GND*%
%TO.N,GND*%
X161360000Y-88460000D03*
%TO.P,A1,5,D2*%
%TO.N,/D0*%
X161360000Y-91000000D03*
%TO.P,A1,6,D3*%
%TO.N,unconnected-(A1-D3-Pad6)*%
X161360000Y-93540000D03*
%TO.P,A1,7,D4*%
%TO.N,unconnected-(A1-D4-Pad7)*%
X161360000Y-96080000D03*
%TO.P,A1,8,D5*%
%TO.N,unconnected-(A1-D5-Pad8)*%
X161360000Y-98620000D03*
%TO.P,A1,9,D6*%
%TO.N,unconnected-(A1-D6-Pad9)*%
X161360000Y-101160000D03*
%TO.P,A1,10,D7*%
%TO.N,unconnected-(A1-D7-Pad10)*%
X161360000Y-103700000D03*
%TO.P,A1,11,D8*%
%TO.N,unconnected-(A1-D8-Pad11)*%
X161360000Y-106240000D03*
%TO.P,A1,12,D9*%
%TO.N,/SERVO*%
X161360000Y-108780000D03*
%TO.P,A1,13,D10*%
%TO.N,/ESC*%
X161360000Y-111320000D03*
%TO.P,A1,14,D11*%
%TO.N,unconnected-(A1-D11-Pad14)*%
X161360000Y-113860000D03*
%TO.P,A1,15,D12*%
%TO.N,unconnected-(A1-D12-Pad15)*%
X161360000Y-116400000D03*
%TO.P,A1,16,D13*%
%TO.N,unconnected-(A1-D13-Pad16)*%
X176600000Y-116400000D03*
%TO.P,A1,17,3V3*%
%TO.N,unconnected-(A1-3V3-Pad17)*%
X176600000Y-113860000D03*
%TO.P,A1,18,AREF*%
%TO.N,unconnected-(A1-AREF-Pad18)*%
X176600000Y-111320000D03*
%TO.P,A1,19,A0*%
%TO.N,unconnected-(A1-A0-Pad19)*%
X176600000Y-108780000D03*
%TO.P,A1,20,A1*%
%TO.N,unconnected-(A1-A1-Pad20)*%
X176600000Y-106240000D03*
%TO.P,A1,21,A2*%
%TO.N,unconnected-(A1-A2-Pad21)*%
X176600000Y-103700000D03*
%TO.P,A1,22,A3*%
%TO.N,unconnected-(A1-A3-Pad22)*%
X176600000Y-101160000D03*
%TO.P,A1,23,A4*%
%TO.N,/SDA*%
X176600000Y-98620000D03*
%TO.P,A1,24,A5*%
%TO.N,/SCL*%
X176600000Y-96080000D03*
%TO.P,A1,25,A6*%
%TO.N,unconnected-(A1-A6-Pad25)*%
X176600000Y-93540000D03*
%TO.P,A1,26,A7*%
%TO.N,unconnected-(A1-A7-Pad26)*%
X176600000Y-91000000D03*
%TO.P,A1,27,+5V*%
%TO.N,VCC*%
X176600000Y-88460000D03*
%TO.P,A1,28,~{RESET}*%
%TO.N,unconnected-(A1-~{RESET}-Pad28)*%
X176600000Y-85920000D03*
%TO.P,A1,29,GND*%
%TO.N,GND*%
X176600000Y-83380000D03*
%TO.P,A1,30,VIN*%
%TO.N,unconnected-(A1-VIN-Pad30)*%
X176600000Y-80840000D03*
%TD*%
D21*
%TO.N,/SCL*%
X158000000Y-84400000D03*
%TO.N,+5V*%
X152129300Y-99890000D03*
%TO.N,VCC*%
X164444300Y-87200000D03*
%TO.N,/SDA*%
X146200000Y-94600000D03*
%TD*%
D22*
%TO.N,/SDA*%
X145134500Y-86734500D02*
X141800000Y-83400000D01*
X146200000Y-94600000D02*
X145134500Y-93534500D01*
X145134500Y-93534500D02*
X145134500Y-86734500D01*
D23*
%TO.N,VCC*%
X164593000Y-74528700D02*
X164593000Y-87051300D01*
X164593000Y-87051300D02*
X164444300Y-87200000D01*
D22*
%TO.N,/SCL*%
X172960000Y-92440000D02*
X176600000Y-96080000D01*
X161244365Y-92440000D02*
X172960000Y-92440000D01*
X158000000Y-89195635D02*
X161244365Y-92440000D01*
X158000000Y-84400000D02*
X158000000Y-89195635D01*
D23*
%TO.N,VCC*%
X179000000Y-89800000D02*
X176600000Y-89800000D01*
X185060000Y-114800000D02*
X185060000Y-95860000D01*
X185060000Y-95860000D02*
X179000000Y-89800000D01*
X176600000Y-89800000D02*
X176600000Y-88460000D01*
D22*
%TO.N,/D0*%
X170250000Y-83211700D02*
X170250000Y-72800000D01*
X162461700Y-91000000D02*
X170250000Y-83211700D01*
X161360000Y-91000000D02*
X162461700Y-91000000D01*
D23*
%TO.N,+5V*%
X152800000Y-100560700D02*
X152129300Y-99890000D01*
X152800000Y-114800000D02*
X152800000Y-100560700D01*
D22*
%TO.N,VCC*%
X165170000Y-72800000D02*
X165170000Y-73951700D01*
X165170000Y-73951700D02*
X164593000Y-74528700D01*
%TD*%
D24*
X158000000Y-84400000D03*
X152129300Y-99890000D03*
X164444300Y-87200000D03*
X146200000Y-94600000D03*
D25*
X141800000Y-91020000D03*
X141800000Y-88480000D03*
X141800000Y-85940000D03*
X141800000Y-83400000D03*
X141800000Y-80860000D03*
X141800000Y-78320000D03*
X141800000Y-75780000D03*
X141800000Y-73240000D03*
X165170000Y-72800000D03*
X167710000Y-72800000D03*
X170250000Y-72800000D03*
X172790000Y-72800000D03*
X191000000Y-94027400D03*
X191000000Y-96027400D03*
X185060000Y-114800000D03*
X187600000Y-114800000D03*
X152800000Y-114800000D03*
X150260000Y-114800000D03*
X142200000Y-101520000D03*
X142200000Y-104060000D03*
X142200000Y-106600000D03*
X196200000Y-92260000D03*
X196200000Y-94800000D03*
X196200000Y-97340000D03*
X195800000Y-114800000D03*
X193260000Y-114800000D03*
X142260000Y-114800000D03*
X144800000Y-114800000D03*
X161360000Y-80840000D03*
X161360000Y-83380000D03*
X161360000Y-85920000D03*
X161360000Y-88460000D03*
X161360000Y-91000000D03*
X161360000Y-93540000D03*
X161360000Y-96080000D03*
X161360000Y-98620000D03*
X161360000Y-101160000D03*
X161360000Y-103700000D03*
X161360000Y-106240000D03*
X161360000Y-108780000D03*
X161360000Y-111320000D03*
X161360000Y-113860000D03*
X161360000Y-116400000D03*
X176600000Y-116400000D03*
X176600000Y-113860000D03*
X176600000Y-111320000D03*
X176600000Y-108780000D03*
X176600000Y-106240000D03*
X176600000Y-103700000D03*
X176600000Y-101160000D03*
X176600000Y-98620000D03*
X176600000Y-96080000D03*
X176600000Y-93540000D03*
X176600000Y-91000000D03*
X176600000Y-88460000D03*
X176600000Y-85920000D03*
X176600000Y-83380000D03*
X176600000Y-80840000D03*
M02*
