M48
METRIC,TZ
T1C0.300
T2C0.600
T3C0.762
T4C0.800
T5C0.900
T6C1.000
%
G90
G05
T1
X146200Y-94600
X152129Y-99890
X158000Y-84400
X164444Y-87200
T2
X191000Y-94027
X191000Y-96027
T3
X141800Y-73240
X141800Y-75780
X141800Y-78320
X141800Y-80860
X141800Y-83400
X141800Y-85940
X141800Y-88480
X141800Y-91020
T4
X150260Y-114800
X152800Y-114800
X185060Y-114800
X187600Y-114800
T5
X142260Y-114800
X144800Y-114800
X193260Y-114800
X195800Y-114800
T6
X142200Y-101520
X142200Y-104060
X142200Y-106600
X161360Y-80840
X161360Y-83380
X161360Y-85920
X161360Y-88460
X161360Y-91000
X161360Y-93540
X161360Y-96080
X161360Y-98620
X161360Y-101160
X161360Y-103700
X161360Y-106240
X161360Y-108780
X161360Y-111320
X161360Y-113860
X161360Y-116400
X165170Y-72800
X167710Y-72800
X170250Y-72800
X172790Y-72800
X176600Y-80840
X176600Y-83380
X176600Y-85920
X176600Y-88460
X176600Y-91000
X176600Y-93540
X176600Y-96080
X176600Y-98620
X176600Y-101160
X176600Y-103700
X176600Y-106240
X176600Y-108780
X176600Y-111320
X176600Y-113860
X176600Y-116400
X196200Y-92260
X196200Y-94800
X196200Y-97340
M30
